<?xml version="1.0" encoding="UTF-8"?>
<svg id="Layer_1" data-name="Layer 1" xmlns="http://www.w3.org/2000/svg" viewBox="0 0 333.9 333.9">
  <defs>
    <style>
      .cls-1 {
        fill: #e3954a;
      }

      .cls-1, .cls-2, .cls-3, .cls-4, .cls-5 {
        stroke-width: 0px;
      }

      .cls-2 {
        fill: #415645;
      }

      .cls-3 {
        fill: #9ecbdc;
      }

      .cls-4 {
        fill: #b8614b;
      }

      .cls-5 {
        fill: #9bc48d;
      }
    </style>
  </defs>
  <path class="cls-3" d="M167.35,0C229.91,0,287.22,34.98,315.83,90.61c28.61,55.64,23.7,122.6-12.7,173.48l-135.78-97.14V0Z"/>
  <path class="cls-4" d="M55.94,42.61C86.57,15.17,126.24,0,167.35,0v166.95L55.94,42.61Z"/>
  <path class="cls-5" d="M9.34,220.85C-12.28,157.47,6.07,87.3,55.94,42.61l111.41,124.34L9.34,220.85Z"/>
  <path class="cls-2" d="M47.16,282.82c-17-17.64-29.91-38.8-37.81-61.98l158.01-53.9-120.2,115.88Z"/>
  <path class="cls-1" d="M303.13,264.09c-28.85,40.33-74.14,65.74-123.59,69.36-49.45,3.62-97.96-14.93-132.37-50.63l120.19-115.88,135.78,97.14Z"/>
</svg>