<?xml version="1.0" encoding="UTF-8"?>
<svg id="Layer_1" data-name="Layer 1" xmlns="http://www.w3.org/2000/svg" viewBox="0 0 333.9 333.9">
  <defs>
    <style>
      .cls-1 {
        fill: #e3954a;
      }

      .cls-1, .cls-2, .cls-3, .cls-4, .cls-5 {
        stroke-width: 0px;
      }

      .cls-2 {
        fill: #415645;
      }

      .cls-3 {
        fill: #9ecbdc;
      }

      .cls-4 {
        fill: #b8614b;
      }

      .cls-5 {
        fill: #9bc48d;
      }
    </style>
  </defs>
  <path class="cls-4" d="M166.95-.01c17.92,0,35.72,2.88,52.72,8.54l-52.72,158.41V-.01Z"/>
  <path class="cls-1" d="M219.67,8.53c51.9,17.28,92.05,58.88,107.46,111.37l-160.19,47.04L219.67,8.53Z"/>
  <path class="cls-2" d="M66.9,33.28C95.78,11.67,130.88-.01,166.95-.01v166.95L66.9,33.28Z"/>
  <path class="cls-5" d="M114.23,325.34C55.27,305.72,12.09,254.98,2.15,193.64c-9.94-61.34,15.01-123.12,64.75-160.36l100.05,133.65-52.72,158.41Z"/>
  <path class="cls-3" d="M327.14,119.9c17.51,59.62.45,124.03-44.26,167.18s-109.69,57.89-168.65,38.27l52.72-158.41,160.19-47.04Z"/>
</svg>