<?xml version="1.0" encoding="UTF-8"?>
<svg id="Layer_1" data-name="Layer 1" xmlns="http://www.w3.org/2000/svg" xmlns:xlink="http://www.w3.org/1999/xlink" viewBox="0 0 557.59 331.76">
  <defs>
    <style>
      .cls-1 {
        fill: #335843;
      }

      .cls-1, .cls-2, .cls-3 {
        stroke-width: 0px;
      }

      .cls-4 {
        clip-path: url(#clippath);
      }

      .cls-2, .cls-5, .cls-6, .cls-7 {
        fill: none;
      }

      .cls-5 {
        stroke: #ccc;
      }

      .cls-5, .cls-6, .cls-7 {
        stroke-miterlimit: 10;
      }

      .cls-8 {
        clip-path: url(#clippath-1);
      }

      .cls-9 {
        clip-path: url(#clippath-4);
      }

      .cls-10 {
        clip-path: url(#clippath-3);
      }

      .cls-11 {
        clip-path: url(#clippath-2);
      }

      .cls-12 {
        clip-path: url(#clippath-7);
      }

      .cls-13 {
        clip-path: url(#clippath-8);
      }

      .cls-14 {
        clip-path: url(#clippath-6);
      }

      .cls-15 {
        clip-path: url(#clippath-5);
      }

      .cls-16 {
        clip-path: url(#clippath-9);
      }

      .cls-6 {
        stroke: #333;
      }

      .cls-3 {
        fill: #000;
      }

      .cls-17 {
        clip-path: url(#clippath-14);
      }

      .cls-18 {
        clip-path: url(#clippath-13);
      }

      .cls-19 {
        clip-path: url(#clippath-12);
      }

      .cls-20 {
        clip-path: url(#clippath-10);
      }

      .cls-21 {
        clip-path: url(#clippath-15);
      }

      .cls-22 {
        clip-path: url(#clippath-11);
      }

      .cls-7 {
        stroke: rgba(0, 0, 0, 0);
        stroke-width: 2px;
      }
    </style>
    <clipPath id="clippath">
      <rect class="cls-2" x="105.78" y=".05" width="444.32" height="313.9"/>
    </clipPath>
    <clipPath id="clippath-1">
      <rect class="cls-2" x="105.78" y=".05" width="444.32" height="313.9"/>
    </clipPath>
    <clipPath id="clippath-2">
      <rect class="cls-2" x="105.78" y=".05" width="444.32" height="313.9"/>
    </clipPath>
    <clipPath id="clippath-3">
      <rect class="cls-2" x="105.78" y=".05" width="444.32" height="313.9"/>
    </clipPath>
    <clipPath id="clippath-4">
      <rect class="cls-2" x="105.78" y=".05" width="444.32" height="313.9"/>
    </clipPath>
    <clipPath id="clippath-5">
      <rect class="cls-2" x="105.78" y=".05" width="444.32" height="313.9"/>
    </clipPath>
    <clipPath id="clippath-6">
      <rect class="cls-2" x="105.78" y=".05" width="444.32" height="313.9"/>
    </clipPath>
    <clipPath id="clippath-7">
      <rect class="cls-2" x="105.78" y=".05" width="444.32" height="313.9"/>
    </clipPath>
    <clipPath id="clippath-8">
      <rect class="cls-2" x="105.78" y=".05" width="444.32" height="313.9"/>
    </clipPath>
    <clipPath id="clippath-9">
      <rect class="cls-2" x="105.78" y=".05" width="444.32" height="313.9"/>
    </clipPath>
    <clipPath id="clippath-10">
      <rect class="cls-2" x="105.78" y=".05" width="444.32" height="313.9"/>
    </clipPath>
    <clipPath id="clippath-11">
      <rect class="cls-2" x="105.78" y=".05" width="444.32" height="313.9"/>
    </clipPath>
    <clipPath id="clippath-12">
      <rect class="cls-2" x="105.78" y=".05" width="444.32" height="313.9"/>
    </clipPath>
    <clipPath id="clippath-13">
      <rect class="cls-2" x="105.78" y=".05" width="444.32" height="313.9"/>
    </clipPath>
    <clipPath id="clippath-14">
      <rect class="cls-2" x="105.78" y=".05" width="444.32" height="313.9"/>
    </clipPath>
    <clipPath id="clippath-15">
      <rect class="cls-2" x="105.78" y=".05" width="444.32" height="313.9"/>
    </clipPath>
  </defs>
  <path class="cls-6" d="M106.15,0v314"/>
  <path class="cls-5" d="M254.15,0v314"/>
  <path class="cls-5" d="M402.15,0v314"/>
  <path class="cls-5" d="M550.15,0v314"/>
  <g class="cls-4">
    <path class="cls-7" d="M105.65,37.5V13.5h405c1.1,0,2,.9,2,2v20c0,1.1-.9,2-2,2H105.65Z"/>
  </g>
  <g class="cls-8">
    <path class="cls-1" d="M105.65,37.5V13.5h405c1.1,0,2,.9,2,2v20c0,1.1-.9,2-2,2H105.65Z"/>
  </g>
  <g class="cls-11">
    <path class="cls-7" d="M105.65,75.5v-24h376c1.1,0,2,.9,2,2v20c0,1.1-.9,2-2,2H105.65Z"/>
  </g>
  <g class="cls-10">
    <path class="cls-1" d="M105.65,75.5v-24h376c1.1,0,2,.9,2,2v20c0,1.1-.9,2-2,2H105.65Z"/>
  </g>
  <g class="cls-9">
    <path class="cls-7" d="M105.65,112.5v-24h361c1.1,0,2,.9,2,2v20c0,1.1-.9,2-2,2H105.65Z"/>
  </g>
  <g class="cls-15">
    <path class="cls-1" d="M105.65,112.5v-24h361c1.1,0,2,.9,2,2v20c0,1.1-.9,2-2,2H105.65Z"/>
  </g>
  <g class="cls-14">
    <path class="cls-7" d="M105.65,150.5v-24h346c1.1,0,2,.9,2,2v20c0,1.1-.9,2-2,2H105.65Z"/>
  </g>
  <g class="cls-12">
    <path class="cls-1" d="M105.65,150.5v-24h346c1.1,0,2,.9,2,2v20c0,1.1-.9,2-2,2H105.65Z"/>
  </g>
  <g class="cls-13">
    <path class="cls-7" d="M105.65,187.5v-24h235c1.1,0,2,.9,2,2v20c0,1.1-.9,2-2,2H105.65Z"/>
  </g>
  <g class="cls-16">
    <path class="cls-1" d="M105.65,187.5v-24h235c1.1,0,2,.9,2,2v20c0,1.1-.9,2-2,2H105.65Z"/>
  </g>
  <g class="cls-20">
    <path class="cls-7" d="M105.65,225.5v-24h168c1.1,0,2,.9,2,2v20c0,1.1-.9,2-2,2H105.65Z"/>
  </g>
  <g class="cls-22">
    <path class="cls-1" d="M105.65,225.5v-24h168c1.1,0,2,.9,2,2v20c0,1.1-.9,2-2,2H105.65Z"/>
  </g>
  <g class="cls-19">
    <path class="cls-7" d="M105.65,262.5v-24h168c1.1,0,2,.9,2,2v20c0,1.1-.9,2-2,2H105.65Z"/>
  </g>
  <g class="cls-18">
    <path class="cls-1" d="M105.65,262.5v-24h168c1.1,0,2,.9,2,2v20c0,1.1-.9,2-2,2H105.65Z"/>
  </g>
  <g class="cls-17">
    <path class="cls-7" d="M105.65,300.5v-24h161c1.1,0,2,.9,2,2v20c0,1.1-.9,2-2,2H105.65Z"/>
  </g>
  <g class="cls-21">
    <path class="cls-1" d="M105.65,300.5v-24h161c1.1,0,2,.9,2,2v20c0,1.1-.9,2-2,2H105.65Z"/>
  </g>
  <path class="cls-3" d="M102.78,326.72c0-1.02.1-1.84.31-2.45.21-.62.52-1.1.92-1.44.42-.33.94-.5,1.56-.5.46,0,.86.09,1.2.28.35.19.65.46.88.81.23.34.41.77.53,1.27.12.5.19,1.18.19,2.03,0,1.01-.1,1.82-.31,2.44-.2.61-.51,1.09-.92,1.44-.41.33-.93.5-1.56.5-.82,0-1.47-.3-1.95-.89-.56-.71-.84-1.87-.84-3.48ZM103.86,326.72c0,1.41.17,2.34.5,2.81.33.47.74.7,1.22.7.49,0,.9-.23,1.22-.7.33-.47.5-1.41.5-2.81s-.17-2.35-.5-2.81c-.32-.47-.73-.7-1.23-.7-.48,0-.86.2-1.16.61-.36.52-.55,1.49-.55,2.91Z"/>
  <path class="cls-3" d="M252.94,329.93v1.02h-5.69c0-.25.04-.49.12-.73.15-.39.38-.77.69-1.14.32-.37.79-.81,1.39-1.3.94-.77,1.57-1.38,1.89-1.83.33-.45.5-.87.5-1.27,0-.42-.15-.77-.45-1.05-.3-.29-.69-.44-1.17-.44-.51,0-.92.15-1.22.45s-.46.72-.47,1.27l-1.08-.11c.07-.81.35-1.43.83-1.84.49-.43,1.15-.64,1.97-.64s1.47.23,1.95.69c.48.46.72,1.03.72,1.7,0,.34-.07.68-.22,1.02-.14.32-.37.67-.7,1.05-.32.36-.86.86-1.61,1.5-.64.53-1.05.9-1.23,1.09-.18.19-.32.38-.44.56h4.22ZM254.39,326.72c0-1.02.1-1.84.31-2.45.21-.62.52-1.1.92-1.44.42-.33.94-.5,1.56-.5.46,0,.86.09,1.2.28.35.19.65.46.88.81.23.34.41.77.53,1.27.12.5.19,1.18.19,2.03,0,1.01-.1,1.82-.31,2.44-.2.61-.51,1.09-.92,1.44-.41.33-.93.5-1.56.5-.82,0-1.47-.3-1.95-.89-.56-.71-.84-1.87-.84-3.48ZM255.47,326.72c0,1.41.17,2.34.5,2.81.33.47.74.7,1.22.7.49,0,.9-.23,1.22-.7.33-.47.5-1.41.5-2.81s-.17-2.35-.5-2.81c-.32-.47-.73-.7-1.23-.7-.48,0-.86.2-1.16.61-.36.52-.55,1.49-.55,2.91Z"/>
  <path class="cls-3" d="M398.87,330.95v-2.06h-3.72v-.97l3.92-5.56h.86v5.56h1.16v.97h-1.16v2.06h-1.06ZM398.87,327.92v-3.86l-2.69,3.86h2.69ZM402.5,326.72c0-1.02.1-1.84.31-2.45.21-.62.52-1.1.92-1.44.42-.33.94-.5,1.56-.5.46,0,.86.09,1.2.28.35.19.65.46.88.81.23.34.41.77.53,1.27.13.5.19,1.18.19,2.03,0,1.01-.1,1.82-.31,2.44-.2.61-.51,1.09-.92,1.44-.41.33-.93.5-1.56.5-.82,0-1.47-.3-1.95-.89-.56-.71-.84-1.87-.84-3.48ZM403.57,326.72c0,1.41.17,2.34.5,2.81.33.47.74.7,1.22.7.49,0,.9-.23,1.22-.7.33-.47.5-1.41.5-2.81,0-1.42-.17-2.35-.5-2.81-.32-.47-.73-.7-1.23-.7-.48,0-.86.2-1.16.61-.36.52-.55,1.49-.55,2.91Z"/>
  <path class="cls-3" d="M549.07,324.47l-1.05.08c-.09-.42-.22-.72-.39-.91-.29-.3-.65-.45-1.06-.45-.33,0-.63.09-.89.28-.32.25-.58.61-.78,1.08-.19.46-.29,1.11-.3,1.97.25-.39.56-.67.92-.86.38-.19.77-.28,1.17-.28.7,0,1.29.26,1.78.78.5.52.75,1.19.75,2,0,.54-.12,1.05-.36,1.52-.23.46-.55.81-.95,1.06-.41.24-.86.36-1.38.36-.89,0-1.6-.32-2.16-.97-.55-.65-.83-1.71-.83-3.19,0-1.67.31-2.87.92-3.62.53-.66,1.25-.98,2.16-.98.68,0,1.23.19,1.66.58.44.38.7.9.78,1.56ZM544.77,328.17c0,.36.07.71.22,1.05.16.32.37.57.64.75.28.18.58.27.89.27.44,0,.82-.18,1.14-.53.32-.36.48-.85.48-1.47s-.16-1.06-.48-1.41c-.31-.34-.71-.52-1.19-.52-.48,0-.89.17-1.22.52-.32.34-.48.79-.48,1.34ZM550.6,326.72c0-1.02.1-1.84.31-2.45.21-.62.52-1.1.92-1.44.42-.33.94-.5,1.56-.5.46,0,.86.09,1.2.28.35.19.65.46.88.81.23.34.41.77.53,1.27.12.5.19,1.18.19,2.03,0,1.01-.1,1.82-.31,2.44-.2.61-.51,1.09-.92,1.44-.41.33-.93.5-1.56.5-.82,0-1.47-.3-1.95-.89-.56-.71-.84-1.87-.84-3.48ZM551.68,326.72c0,1.41.17,2.34.5,2.81.33.47.74.7,1.22.7.49,0,.9-.23,1.22-.7.33-.47.5-1.41.5-2.81s-.17-2.35-.5-2.81c-.32-.47-.73-.7-1.23-.7-.48,0-.86.2-1.16.61-.36.52-.55,1.49-.55,2.91Z"/>
  <g>
    <g>
      <path class="cls-3" d="M11.92,21.01c.8,0,1.48.1,2.01.56.59.5.73,1.21.73,1.72,0,1.13-.71,2.24-2.53,2.24h-.78v3.48h-.89v-8h1.45ZM11.35,24.69h.73c1.06,0,1.69-.53,1.69-1.45,0-1.27-1.19-1.39-1.76-1.39h-.66v2.84Z"/>
      <path class="cls-3" d="M16.58,20.26v8.74h-.86v-8.74h.86Z"/>
      <path class="cls-3" d="M22.03,24.03h.86v4.98h-.86v-.7c-.29.37-.83.84-1.7.84-1.26,0-2.42-.89-2.42-2.64s1.15-2.6,2.42-2.6c.96,0,1.48.53,1.7.83v-.71ZM18.79,26.51c0,1.07.6,1.87,1.63,1.87s1.65-.88,1.65-1.86c0-1.28-.89-1.85-1.65-1.85-.85,0-1.63.62-1.63,1.83Z"/>
      <path class="cls-3" d="M24.53,24.03h.86v.58c.16-.2.6-.7,1.43-.7.59,0,1.13.24,1.43.68.25.37.29.78.29,1.33v3.08h-.86v-3.06c0-.3-.02-.65-.23-.91-.17-.22-.43-.36-.82-.36-.3,0-.62.08-.88.38-.34.4-.36.98-.36,1.34v2.6h-.86v-4.98Z"/>
      <path class="cls-3" d="M31.05,24.82v4.19h-.86v-4.19h-.53v-.79h.53v-1.8h.86v1.8h.86v.79h-.86Z"/>
      <path class="cls-3" d="M33.17,21.53c.34,0,.61.28.61.61s-.28.61-.61.61-.61-.28-.61-.61.28-.61.61-.61ZM33.6,24.03v4.98h-.86v-4.98h.86Z"/>
      <path class="cls-3" d="M35.23,24.03h.86v.58c.16-.2.6-.7,1.43-.7.59,0,1.13.24,1.43.68.25.37.29.78.29,1.33v3.08h-.86v-3.06c0-.3-.02-.65-.23-.91-.17-.22-.43-.36-.82-.36-.3,0-.62.08-.88.38-.34.4-.36.98-.36,1.34v2.6h-.86v-4.98Z"/>
      <path class="cls-3" d="M44.68,24.03h.86v4.86c0,.54,0,1.31-.48,1.96-.37.5-1.05.92-1.99.92-.85,0-1.44-.34-1.78-.67s-.65-.88-.65-1.61h.85c0,.42.17.79.38,1.03.36.4.82.48,1.2.48.61,0,1.03-.22,1.32-.7.25-.41.28-.85.28-1.27v-.72c-.29.37-.83.84-1.7.84-.73,0-1.32-.29-1.7-.67-.33-.34-.72-.96-.72-1.97s.36-1.57.72-1.93c.42-.41,1.03-.67,1.7-.67.73,0,1.31.31,1.7.83v-.71ZM41.95,25.14c-.42.43-.5.96-.5,1.37,0,.43.08,1.02.56,1.46.28.25.61.41,1.07.41s.82-.14,1.09-.42c.34-.32.56-.85.56-1.44s-.22-1.1-.53-1.4c-.28-.28-.68-.44-1.13-.44-.53,0-.89.23-1.13.47Z"/>
      <path class="cls-3" d="M56.31,22.77c-.25-.25-.64-.55-1.04-.74-.42-.19-.91-.31-1.38-.31-1.85,0-3.21,1.49-3.21,3.33,0,2.17,1.76,3.26,3.23,3.26.54,0,1.07-.16,1.49-.37.46-.23.78-.53.92-.67v1.1c-.89.64-1.81.78-2.41.78-2.37,0-4.14-1.8-4.14-4.11s1.79-4.16,4.19-4.16c.48,0,1.4.06,2.36.79v1.1Z"/>
      <path class="cls-3" d="M61.55,24.03h.86v4.98h-.86v-.7c-.29.37-.83.84-1.7.84-1.26,0-2.42-.89-2.42-2.64s1.15-2.6,2.42-2.6c.96,0,1.47.53,1.7.83v-.71ZM58.31,26.51c0,1.07.6,1.87,1.63,1.87s1.66-.88,1.66-1.86c0-1.28-.89-1.85-1.66-1.85-.85,0-1.63.62-1.63,1.83Z"/>
      <path class="cls-3" d="M64.91,20.26v8.74h-.86v-8.74h.86Z"/>
      <path class="cls-3" d="M70.95,27.74c-.14.28-.36.58-.61.8-.46.41-1.02.61-1.66.61-1.2,0-2.46-.76-2.46-2.6,0-1.49.91-2.64,2.41-2.64.97,0,1.58.48,1.88.91.31.44.49,1.21.47,1.87h-3.87c.01,1.03.72,1.69,1.58,1.69.41,0,.73-.12,1.02-.36.23-.19.41-.44.52-.68l.72.4ZM70.1,25.97c-.14-.78-.73-1.3-1.46-1.3s-1.33.55-1.46,1.3h2.93Z"/>
      <path class="cls-3" d="M72.31,24.03h.86v.58c.16-.2.6-.7,1.43-.7.59,0,1.13.24,1.43.68.25.37.29.78.29,1.33v3.08h-.86v-3.06c0-.3-.02-.65-.23-.91-.17-.22-.43-.36-.82-.36-.3,0-.62.08-.88.38-.34.4-.36.98-.36,1.34v2.6h-.86v-4.98Z"/>
      <path class="cls-3" d="M81.76,20.26h.86v8.74h-.86v-.7c-.29.37-.83.84-1.7.84-1.26,0-2.42-.89-2.42-2.64s1.15-2.6,2.42-2.6c.96,0,1.47.53,1.7.83v-4.47ZM78.53,26.51c0,1.07.6,1.87,1.63,1.87s1.66-.88,1.66-1.86c0-1.28-.89-1.85-1.66-1.85-.85,0-1.63.62-1.63,1.83Z"/>
      <path class="cls-3" d="M88.08,24.03h.86v4.98h-.86v-.7c-.29.37-.83.84-1.7.84-1.26,0-2.42-.89-2.42-2.64s1.15-2.6,2.42-2.6c.96,0,1.48.53,1.7.83v-.71ZM84.84,26.51c0,1.07.6,1.87,1.63,1.87s1.65-.88,1.65-1.86c0-1.28-.89-1.85-1.65-1.85-.85,0-1.63.62-1.63,1.83Z"/>
      <path class="cls-3" d="M90.57,24.03h.86v.54c.08-.13.46-.66,1.13-.66.26,0,.55.1.77.2l-.41.78c-.19-.13-.37-.17-.5-.17-.35,0-.56.14-.7.31-.14.19-.29.53-.29,1.34v2.63h-.86v-4.98Z"/>
    </g>
    <g>
      <path class="cls-3" d="M54.2,51.17c.44,0,1.25.04,1.83.5.25.19.72.68.72,1.66,0,.4-.08,1.09-.79,1.57,1.12.28,1.52,1.25,1.52,2.01s-.38,1.39-.82,1.73c-.64.5-1.37.53-1.92.53h-1.99v-8h1.44ZM53.64,54.68h.67c.47,0,1.57-.1,1.57-1.33,0-1.32-1.3-1.34-1.55-1.34h-.7v2.67ZM53.64,58.33h1.02c.52,0,1.02-.04,1.4-.34.31-.23.53-.62.53-1.1,0-.64-.37-1.01-.68-1.18-.3-.17-.72-.24-1.35-.24h-.91v2.85Z"/>
      <path class="cls-3" d="M63.31,57.89c-.14.28-.36.58-.61.8-.46.41-1.02.61-1.66.61-1.2,0-2.46-.76-2.46-2.6,0-1.49.91-2.64,2.41-2.64.97,0,1.58.48,1.88.91.31.44.49,1.21.47,1.87h-3.87c.01,1.03.72,1.69,1.58,1.69.41,0,.73-.12,1.02-.36.23-.19.41-.44.52-.68l.72.4ZM62.46,56.13c-.14-.78-.73-1.3-1.46-1.3s-1.33.55-1.46,1.3h2.93Z"/>
      <path class="cls-3" d="M68.49,54.19h.86v4.86c0,.54,0,1.31-.48,1.96-.37.5-1.06.92-1.99.92-.85,0-1.44-.34-1.77-.67-.34-.34-.65-.88-.65-1.61h.85c0,.42.17.79.38,1.03.36.4.82.48,1.2.48.61,0,1.03-.22,1.32-.7.25-.41.28-.85.28-1.27v-.72c-.29.37-.83.84-1.7.84-.73,0-1.32-.29-1.7-.67-.34-.34-.72-.96-.72-1.97s.36-1.57.72-1.93c.42-.41,1.03-.67,1.7-.67.73,0,1.31.31,1.7.83v-.71ZM65.75,55.3c-.42.43-.5.96-.5,1.37,0,.43.08,1.02.56,1.46.28.25.61.41,1.07.41s.82-.14,1.09-.42c.34-.32.56-.85.56-1.44s-.22-1.1-.53-1.4c-.28-.28-.68-.44-1.13-.44-.53,0-.89.23-1.13.47Z"/>
      <path class="cls-3" d="M71.42,51.69c.34,0,.61.28.61.61s-.28.61-.61.61-.61-.28-.61-.61.28-.61.61-.61ZM71.85,54.19v4.98h-.86v-4.98h.86Z"/>
      <path class="cls-3" d="M73.48,54.19h.86v.58c.16-.2.6-.7,1.43-.7.59,0,1.13.24,1.43.68.25.37.29.78.29,1.33v3.08h-.86v-3.06c0-.3-.02-.65-.23-.91-.17-.22-.43-.36-.82-.36-.3,0-.62.08-.88.38-.34.4-.36.98-.36,1.34v2.6h-.86v-4.98Z"/>
      <path class="cls-3" d="M79.12,54.19h.86v.58c.16-.2.6-.7,1.43-.7.59,0,1.13.24,1.43.68.25.37.29.78.29,1.33v3.08h-.86v-3.06c0-.3-.02-.65-.23-.91-.17-.22-.43-.36-.82-.36-.3,0-.62.08-.88.38-.34.4-.36.98-.36,1.34v2.6h-.86v-4.98Z"/>
      <path class="cls-3" d="M89.17,57.89c-.14.28-.36.58-.61.8-.46.41-1.02.61-1.66.61-1.2,0-2.46-.76-2.46-2.6,0-1.49.91-2.64,2.41-2.64.97,0,1.58.48,1.88.91.31.44.49,1.21.47,1.87h-3.87c.01,1.03.72,1.69,1.58,1.69.41,0,.73-.12,1.02-.36.23-.19.41-.44.52-.68l.72.4ZM88.32,56.13c-.14-.78-.73-1.3-1.46-1.3s-1.33.55-1.46,1.3h2.93Z"/>
      <path class="cls-3" d="M90.53,54.19h.86v.54c.08-.13.46-.66,1.13-.66.26,0,.55.1.77.2l-.41.78c-.19-.13-.37-.17-.5-.17-.35,0-.56.14-.7.31-.14.19-.29.53-.29,1.34v2.63h-.86v-4.98Z"/>
      <path class="cls-3" d="M31.38,68.59h.86v4.86c0,.54,0,1.31-.48,1.96-.37.5-1.06.92-1.99.92-.85,0-1.44-.34-1.77-.67-.34-.34-.65-.88-.65-1.61h.85c0,.42.17.79.38,1.03.36.4.82.48,1.2.48.61,0,1.03-.22,1.32-.7.25-.41.28-.85.28-1.27v-.72c-.29.37-.83.84-1.7.84-.73,0-1.32-.29-1.7-.67-.34-.34-.72-.96-.72-1.97s.36-1.57.72-1.93c.42-.41,1.03-.67,1.7-.67.73,0,1.31.31,1.7.83v-.71ZM28.64,69.7c-.42.43-.5.96-.5,1.37,0,.43.08,1.02.56,1.46.28.25.61.41,1.07.41s.82-.14,1.09-.42c.34-.32.56-.85.56-1.44s-.22-1.1-.53-1.4c-.28-.28-.68-.44-1.13-.44-.53,0-.89.23-1.13.47Z"/>
      <path class="cls-3" d="M37.69,68.59h.86v4.98h-.86v-.7c-.29.37-.83.84-1.7.84-1.26,0-2.42-.89-2.42-2.64s1.15-2.6,2.42-2.6c.96,0,1.48.53,1.7.83v-.71ZM34.45,71.07c0,1.07.6,1.87,1.63,1.87s1.65-.88,1.65-1.86c0-1.28-.89-1.85-1.65-1.85-.85,0-1.63.62-1.63,1.83Z"/>
      <path class="cls-3" d="M40.18,68.59h.86v.54c.08-.13.46-.66,1.13-.66.26,0,.55.1.77.2l-.41.78c-.19-.13-.37-.17-.5-.17-.35,0-.56.14-.7.31-.14.19-.29.53-.29,1.34v2.63h-.86v-4.98Z"/>
      <path class="cls-3" d="M47.26,64.82h.86v8.74h-.86v-.7c-.29.37-.83.84-1.7.84-1.26,0-2.42-.89-2.42-2.64s1.15-2.6,2.42-2.6c.96,0,1.48.53,1.7.83v-4.47ZM44.02,71.07c0,1.07.6,1.87,1.63,1.87s1.65-.88,1.65-1.86c0-1.28-.89-1.85-1.65-1.85-.85,0-1.63.62-1.63,1.83Z"/>
      <path class="cls-3" d="M54.17,72.29c-.14.28-.36.58-.61.8-.46.41-1.02.61-1.66.61-1.2,0-2.46-.76-2.46-2.6,0-1.49.91-2.64,2.41-2.64.97,0,1.58.48,1.88.91.31.44.49,1.21.47,1.87h-3.87c.01,1.03.72,1.69,1.58,1.69.41,0,.73-.12,1.02-.36.23-.19.41-.44.52-.68l.72.4ZM53.32,70.53c-.14-.78-.73-1.3-1.46-1.3s-1.33.55-1.46,1.3h2.93Z"/>
      <path class="cls-3" d="M55.53,68.59h.86v.58c.16-.2.6-.7,1.43-.7.59,0,1.13.24,1.43.68.25.37.29.78.29,1.33v3.08h-.86v-3.06c0-.3-.02-.65-.23-.91-.17-.22-.43-.36-.82-.36-.3,0-.62.08-.88.38-.34.4-.36.98-.36,1.34v2.6h-.86v-4.98Z"/>
      <path class="cls-3" d="M61.6,66.09c.34,0,.61.28.61.61s-.28.61-.61.61-.61-.28-.61-.61.28-.61.61-.61ZM62.04,68.59v4.98h-.86v-4.98h.86Z"/>
      <path class="cls-3" d="M63.67,68.59h.86v.58c.16-.2.6-.7,1.43-.7.59,0,1.13.24,1.43.68.25.37.29.78.29,1.33v3.08h-.86v-3.06c0-.3-.02-.65-.23-.91-.17-.22-.43-.36-.82-.36-.3,0-.62.08-.88.38-.34.4-.36.98-.36,1.34v2.6h-.86v-4.98Z"/>
      <path class="cls-3" d="M73.12,68.59h.86v4.86c0,.54,0,1.31-.48,1.96-.37.5-1.05.92-1.99.92-.85,0-1.44-.34-1.78-.67s-.65-.88-.65-1.61h.85c0,.42.17.79.38,1.03.36.4.82.48,1.2.48.61,0,1.03-.22,1.32-.7.25-.41.28-.85.28-1.27v-.72c-.29.37-.83.84-1.7.84-.73,0-1.32-.29-1.7-.67-.33-.34-.72-.96-.72-1.97s.36-1.57.72-1.93c.42-.41,1.03-.67,1.7-.67.73,0,1.31.31,1.7.83v-.71ZM70.39,69.7c-.42.43-.5.96-.5,1.37,0,.43.08,1.02.56,1.46.28.25.61.41,1.07.41s.82-.14,1.09-.42c.34-.32.56-.85.56-1.44s-.22-1.1-.53-1.4c-.28-.28-.68-.44-1.13-.44-.53,0-.89.23-1.13.47Z"/>
      <path class="cls-3" d="M79.3,69.38v4.19h-.86v-4.19h-.53v-.79h.53v-1.8h.86v1.8h.86v.79h-.86Z"/>
      <path class="cls-3" d="M81.42,66.09c.34,0,.61.28.61.61s-.28.61-.61.61-.61-.28-.61-.61.28-.61.61-.61ZM81.85,68.59v4.98h-.86v-4.98h.86Z"/>
      <path class="cls-3" d="M84.34,76.32h-.86v-7.74h.86v.7c.59-.73,1.34-.82,1.7-.82,1.56,0,2.42,1.3,2.42,2.64s-.88,2.6-2.39,2.6c-.8,0-1.37-.36-1.74-.84v3.45ZM87.58,71.11c0-1.22-.83-1.87-1.63-1.87s-1.66.66-1.66,1.86c0,1.02.65,1.85,1.67,1.85s1.62-.84,1.62-1.83Z"/>
      <path class="cls-3" d="M91.84,69.74c-.12-.29-.37-.5-.7-.5s-.6.18-.6.56c0,.36.24.47.8.71.72.3,1.06.53,1.25.77.22.26.26.53.26.8,0,1.04-.76,1.63-1.71,1.63-.2,0-1.32-.02-1.74-1.27l.74-.31c.1.26.38.82,1.01.82.56,0,.82-.42.82-.79,0-.47-.34-.62-.8-.83-.6-.26-.98-.46-1.21-.73-.19-.24-.23-.48-.23-.73,0-.88.61-1.39,1.45-1.39.26,0,.97.05,1.37.9l-.71.37Z"/>
    </g>
    <g>
      <path class="cls-3" d="M19.98,97.89v-8.34l6.24,6.54v-6.2h.89v8.36l-6.24-6.54v6.18h-.89Z"/>
      <path class="cls-3" d="M28.64,95.42c0-1.51,1.12-2.63,2.64-2.63s2.64,1.12,2.64,2.63-1.13,2.61-2.64,2.61-2.64-1.1-2.64-2.61ZM29.53,95.42c0,1.22.86,1.85,1.75,1.85s1.75-.64,1.75-1.85-.84-1.86-1.75-1.86-1.75.65-1.75,1.86Z"/>
      <path class="cls-3" d="M36.13,93.7v4.19h-.86v-4.19h-.53v-.79h.53v-1.8h.86v1.8h.86v.79h-.86Z"/>
      <path class="cls-3" d="M38.24,90.42c.33,0,.61.28.61.61s-.28.61-.61.61-.61-.28-.61-.61.28-.61.61-.61ZM38.67,92.91v4.98h-.86v-4.98h.86Z"/>
      <path class="cls-3" d="M41.19,93.7v4.19h-.86v-4.19h-.48v-.79h.48v-1.87c0-.54.04-.95.29-1.31.23-.34.71-.73,1.64-.73.42,0,1.22.07,1.64.73.28.44.29.92.29,1.31v.2h-.86v-.2c0-.19-.01-.54-.17-.78-.14-.22-.42-.38-.9-.38s-.75.17-.9.38c-.16.23-.17.53-.17.78v1.87h1.22v.79h-1.22ZM44.19,92.91v4.98h-.86v-4.98h.86Z"/>
      <path class="cls-3" d="M49.72,94.3c-.46-.58-1.12-.74-1.56-.74-.92,0-1.76.65-1.76,1.86s.86,1.85,1.75,1.85c.52,0,1.15-.23,1.61-.78v1.03c-.54.4-1.12.52-1.58.52-1.55,0-2.66-1.1-2.66-2.6s1.13-2.64,2.66-2.64c.79,0,1.31.31,1.55.48v1.03Z"/>
      <path class="cls-3" d="M54.9,92.91h.86v4.98h-.86v-.7c-.29.37-.83.84-1.7.84-1.26,0-2.42-.89-2.42-2.64s1.15-2.6,2.42-2.6c.96,0,1.48.53,1.7.83v-.71ZM51.66,95.39c0,1.07.6,1.87,1.63,1.87s1.65-.88,1.65-1.86c0-1.28-.89-1.85-1.65-1.85-.85,0-1.63.62-1.63,1.83Z"/>
      <path class="cls-3" d="M58.28,93.7v4.19h-.86v-4.19h-.53v-.79h.53v-1.8h.86v1.8h.86v.79h-.86Z"/>
      <path class="cls-3" d="M60.39,90.42c.34,0,.61.28.61.61s-.28.61-.61.61-.61-.28-.61-.61.28-.61.61-.61ZM60.83,92.91v4.98h-.86v-4.98h.86Z"/>
      <path class="cls-3" d="M62.15,95.42c0-1.51,1.12-2.63,2.64-2.63s2.64,1.12,2.64,2.63-1.13,2.61-2.64,2.61-2.64-1.1-2.64-2.61ZM63.03,95.42c0,1.22.86,1.85,1.75,1.85s1.75-.64,1.75-1.85-.84-1.86-1.75-1.86-1.75.65-1.75,1.86Z"/>
      <path class="cls-3" d="M68.75,92.91h.86v.58c.16-.2.6-.7,1.43-.7.59,0,1.13.24,1.43.68.25.37.29.78.29,1.33v3.08h-.86v-3.06c0-.3-.02-.65-.23-.91-.17-.22-.43-.36-.82-.36-.3,0-.62.08-.88.38-.34.4-.36.98-.36,1.34v2.6h-.86v-4.98Z"/>
      <path class="cls-3" d="M76.44,94.06c-.12-.29-.37-.5-.7-.5s-.6.18-.6.56c0,.36.24.47.8.71.72.3,1.06.53,1.25.77.22.26.26.53.26.8,0,1.04-.76,1.63-1.71,1.63-.2,0-1.32-.02-1.74-1.27l.74-.31c.1.26.38.82,1.01.82.56,0,.82-.42.82-.79,0-.47-.34-.62-.8-.83-.6-.26-.98-.46-1.21-.73-.19-.24-.23-.48-.23-.73,0-.88.61-1.39,1.45-1.39.26,0,.97.05,1.37.9l-.71.37Z"/>
      <path class="cls-3" d="M82.29,93.7v4.19h-.86v-4.19h-.48v-.79h.48v-2.17c0-.46.04-1.03.48-1.4.24-.2.6-.32,1-.32.31,0,.52.07.61.11v.84c-.18-.07-.38-.11-.56-.11-.19,0-.42.05-.55.26-.11.18-.11.46-.11.72v2.08h1.22v.79h-1.22Z"/>
      <path class="cls-3" d="M83.97,95.42c0-1.51,1.12-2.63,2.64-2.63s2.64,1.12,2.64,2.63-1.13,2.61-2.64,2.61-2.64-1.1-2.64-2.61ZM84.86,95.42c0,1.22.86,1.85,1.75,1.85s1.75-.64,1.75-1.85-.84-1.86-1.75-1.86-1.75.65-1.75,1.86Z"/>
      <path class="cls-3" d="M90.57,92.91h.86v.54c.08-.13.46-.66,1.13-.66.26,0,.55.1.77.2l-.41.78c-.19-.13-.37-.17-.5-.17-.35,0-.56.14-.7.31-.14.19-.29.53-.29,1.34v2.63h-.86v-4.98Z"/>
      <path class="cls-3" d="M15.84,103.55h.86v4.34c.16-.2.6-.7,1.43-.7.59,0,1.13.24,1.43.68.25.37.29.78.29,1.33v3.08h-.86v-3.06c0-.3-.02-.65-.23-.91-.17-.22-.43-.36-.82-.36-.3,0-.62.08-.88.38-.34.4-.36.98-.36,1.34v2.6h-.86v-8.74Z"/>
      <path class="cls-3" d="M25.29,107.31h.86v4.98h-.86v-.7c-.29.37-.83.84-1.7.84-1.26,0-2.42-.89-2.42-2.64s1.15-2.6,2.42-2.6c.96,0,1.48.53,1.7.83v-.71ZM22.05,109.79c0,1.07.6,1.87,1.63,1.87s1.65-.88,1.65-1.86c0-1.28-.89-1.85-1.65-1.85-.85,0-1.63.62-1.63,1.83Z"/>
      <path class="cls-3" d="M27.79,107.31h.86v.54c.08-.13.46-.66,1.13-.66.26,0,.55.1.77.2l-.41.78c-.19-.13-.37-.17-.5-.17-.35,0-.56.14-.7.31-.14.19-.29.53-.29,1.34v2.63h-.86v-4.98Z"/>
      <path class="cls-3" d="M31.84,107.31l1.49,3.36,1.49-3.36h.96l-2.45,5.3-2.45-5.3h.96Z"/>
      <path class="cls-3" d="M41.1,111.02c-.14.28-.36.58-.61.8-.46.41-1.02.61-1.66.61-1.2,0-2.46-.76-2.46-2.6,0-1.49.91-2.64,2.41-2.64.97,0,1.58.48,1.88.91.31.44.49,1.21.47,1.87h-3.87c.01,1.03.72,1.69,1.58,1.69.41,0,.73-.12,1.02-.36.23-.19.41-.44.52-.68l.72.4ZM40.25,109.26c-.14-.78-.73-1.3-1.46-1.3s-1.33.55-1.46,1.3h2.93Z"/>
      <path class="cls-3" d="M44.51,108.46c-.12-.29-.37-.5-.7-.5s-.6.18-.6.56c0,.36.24.47.8.71.72.3,1.06.53,1.25.77.22.26.26.53.26.8,0,1.04-.76,1.63-1.71,1.63-.2,0-1.32-.02-1.74-1.27l.74-.31c.1.26.38.82,1.01.82.56,0,.82-.42.82-.79,0-.47-.34-.62-.8-.83-.6-.26-.98-.46-1.21-.73-.19-.24-.23-.48-.23-.73,0-.88.61-1.39,1.45-1.39.26,0,.97.05,1.37.9l-.71.37Z"/>
      <path class="cls-3" d="M47.57,108.1v4.19h-.86v-4.19h-.53v-.79h.53v-1.8h.86v1.8h.86v.79h-.86Z"/>
      <path class="cls-3" d="M54.6,103.19l.7.36-6.16,11.12-.7-.34,6.17-11.14Z"/>
      <path class="cls-3" d="M57.21,115.05h-.86v-7.74h.86v.7c.59-.73,1.34-.82,1.7-.82,1.56,0,2.42,1.3,2.42,2.64s-.88,2.6-2.39,2.6c-.8,0-1.37-.36-1.74-.84v3.45ZM60.45,109.83c0-1.22-.83-1.87-1.63-1.87s-1.66.66-1.66,1.86c0,1.02.65,1.85,1.67,1.85s1.62-.84,1.62-1.83Z"/>
      <path class="cls-3" d="M63.53,103.55v8.74h-.86v-8.74h.86Z"/>
      <path class="cls-3" d="M68.97,107.31h.86v4.98h-.86v-.7c-.29.37-.83.84-1.7.84-1.26,0-2.42-.89-2.42-2.64s1.15-2.6,2.42-2.6c.96,0,1.47.53,1.7.83v-.71ZM65.73,109.79c0,1.07.6,1.87,1.63,1.87s1.66-.88,1.66-1.86c0-1.28-.89-1.85-1.66-1.85-.85,0-1.63.62-1.63,1.83Z"/>
      <path class="cls-3" d="M71.47,107.31h.86v.58c.16-.2.6-.7,1.43-.7.59,0,1.13.24,1.43.68.25.37.29.78.29,1.33v3.08h-.86v-3.06c0-.3-.02-.65-.23-.91-.17-.22-.43-.36-.82-.36-.3,0-.62.08-.88.38-.34.4-.36.98-.36,1.34v2.6h-.86v-4.98Z"/>
      <path class="cls-3" d="M78,108.1v4.19h-.86v-4.19h-.53v-.79h.53v-1.8h.86v1.8h.86v.79h-.86Z"/>
      <path class="cls-3" d="M80.11,104.82c.33,0,.61.28.61.61s-.28.61-.61.61-.61-.28-.61-.61.28-.61.61-.61ZM80.54,107.31v4.98h-.86v-4.98h.86Z"/>
      <path class="cls-3" d="M82.17,107.31h.86v.58c.16-.2.6-.7,1.43-.7.59,0,1.13.24,1.43.68.25.37.29.78.29,1.33v3.08h-.86v-3.06c0-.3-.02-.65-.23-.91-.17-.22-.43-.36-.82-.36-.3,0-.62.08-.88.38-.34.4-.36.98-.36,1.34v2.6h-.86v-4.98Z"/>
      <path class="cls-3" d="M91.63,107.31h.86v4.86c0,.54,0,1.31-.48,1.96-.37.5-1.06.92-1.99.92-.85,0-1.44-.34-1.77-.67-.34-.34-.65-.88-.65-1.61h.85c0,.42.17.79.38,1.03.36.4.82.48,1.2.48.61,0,1.03-.22,1.32-.7.25-.41.28-.85.28-1.27v-.72c-.29.37-.83.84-1.7.84-.73,0-1.32-.29-1.7-.67-.34-.34-.72-.96-.72-1.97s.36-1.57.72-1.93c.42-.41,1.03-.67,1.7-.67.73,0,1.31.31,1.7.83v-.71ZM88.89,108.43c-.42.43-.5.96-.5,1.37,0,.43.08,1.02.56,1.46.28.25.61.41,1.07.41s.82-.14,1.09-.42c.34-.32.56-.85.56-1.44s-.22-1.1-.53-1.4c-.28-.28-.68-.44-1.13-.44-.53,0-.89.23-1.13.47Z"/>
    </g>
    <g>
      <path class="cls-3" d="M12.53,126.66v8h-.89v-8h.89Z"/>
      <path class="cls-3" d="M14.38,129.68h.86v.58c.16-.2.6-.7,1.43-.7.59,0,1.13.24,1.43.68.25.37.29.78.29,1.33v3.08h-.86v-3.06c0-.3-.02-.65-.23-.91-.17-.22-.43-.36-.82-.36-.3,0-.62.08-.88.38-.34.4-.36.98-.36,1.34v2.6h-.86v-4.98Z"/>
      <path class="cls-3" d="M20.9,130.47v4.19h-.86v-4.19h-.48v-.79h.48v-2.17c0-.46.04-1.03.48-1.4.24-.2.6-.32,1-.32.31,0,.52.07.61.11v.84c-.18-.07-.38-.11-.56-.11-.19,0-.42.05-.55.26-.11.18-.11.46-.11.72v2.08h1.22v.79h-1.22Z"/>
      <path class="cls-3" d="M22.58,132.19c0-1.51,1.12-2.63,2.64-2.63s2.64,1.12,2.64,2.63-1.13,2.61-2.64,2.61-2.64-1.1-2.64-2.61ZM23.47,132.19c0,1.22.86,1.85,1.75,1.85s1.75-.64,1.75-1.85-.84-1.86-1.75-1.86-1.75.65-1.75,1.86Z"/>
      <path class="cls-3" d="M29.18,129.68h.86v.54c.08-.13.46-.66,1.13-.66.26,0,.55.1.77.2l-.41.78c-.19-.13-.37-.17-.5-.17-.35,0-.56.14-.7.31-.14.19-.29.53-.29,1.34v2.63h-.86v-4.98Z"/>
      <path class="cls-3" d="M32.73,129.68h.86v.53c.28-.41.71-.65,1.24-.65.9,0,1.26.64,1.35.8.48-.76,1.16-.8,1.5-.8,1.47,0,1.62,1.24,1.62,1.94v3.15h-.86v-3.02c0-.56-.07-1.31-.89-1.31-1,0-1.1.96-1.1,1.56v2.77h-.86v-2.95c0-.35.01-1.38-.9-1.38-.98,0-1.09,1.02-1.09,1.62v2.71h-.86v-4.98Z"/>
      <path class="cls-3" d="M44.77,129.68h.86v4.98h-.86v-.7c-.29.37-.83.84-1.7.84-1.26,0-2.42-.89-2.42-2.64s1.15-2.6,2.42-2.6c.96,0,1.47.53,1.7.83v-.71ZM41.53,132.16c0,1.07.6,1.87,1.63,1.87s1.66-.88,1.66-1.86c0-1.28-.89-1.85-1.66-1.85-.85,0-1.63.62-1.63,1.83Z"/>
      <path class="cls-3" d="M48.15,130.47v4.19h-.86v-4.19h-.53v-.79h.53v-1.8h.86v1.8h.86v.79h-.86Z"/>
      <path class="cls-3" d="M50.27,127.19c.34,0,.61.28.61.61s-.28.61-.61.61-.61-.28-.61-.61.28-.61.61-.61ZM50.7,129.68v4.98h-.86v-4.98h.86Z"/>
      <path class="cls-3" d="M52.02,132.19c0-1.51,1.12-2.63,2.64-2.63s2.64,1.12,2.64,2.63-1.13,2.61-2.64,2.61-2.64-1.1-2.64-2.61ZM52.91,132.19c0,1.22.86,1.85,1.75,1.85s1.75-.64,1.75-1.85-.84-1.86-1.75-1.86-1.75.65-1.75,1.86Z"/>
      <path class="cls-3" d="M58.62,129.68h.86v.58c.16-.2.6-.7,1.43-.7.59,0,1.13.24,1.43.68.25.37.29.78.29,1.33v3.08h-.86v-3.06c0-.3-.02-.65-.23-.91-.17-.22-.43-.36-.82-.36-.3,0-.62.08-.88.38-.34.4-.36.98-.36,1.34v2.6h-.86v-4.98Z"/>
      <path class="cls-3" d="M70.87,129.68h.86v4.98h-.86v-.7c-.29.37-.83.84-1.7.84-1.26,0-2.42-.89-2.42-2.64s1.15-2.6,2.42-2.6c.96,0,1.47.53,1.7.83v-.71ZM67.63,132.16c0,1.07.6,1.87,1.63,1.87s1.66-.88,1.66-1.86c0-1.28-.89-1.85-1.66-1.85-.85,0-1.63.62-1.63,1.83Z"/>
      <path class="cls-3" d="M74.23,134.66h-.86v-8.74h.86v4.46c.59-.73,1.34-.82,1.7-.82,1.56,0,2.42,1.3,2.42,2.64s-.88,2.6-2.39,2.6c-.8,0-1.37-.36-1.74-.84v.7ZM77.47,132.2c0-1.22-.83-1.87-1.63-1.87s-1.66.66-1.66,1.86c0,1.02.65,1.85,1.67,1.85s1.62-.84,1.62-1.83Z"/>
      <path class="cls-3" d="M79.37,132.19c0-1.51,1.12-2.63,2.64-2.63s2.64,1.12,2.64,2.63-1.13,2.61-2.64,2.61-2.64-1.1-2.64-2.61ZM80.25,132.19c0,1.22.86,1.85,1.75,1.85s1.75-.64,1.75-1.85-.84-1.86-1.75-1.86-1.75.65-1.75,1.86Z"/>
      <path class="cls-3" d="M86.83,132.58c0,.35,0,.76.24,1.07.13.17.4.38.88.38s.74-.22.88-.38c.24-.31.24-.72.24-1.07v-2.9h.86v3c0,.61-.06,1.07-.46,1.5-.44.47-1.03.62-1.52.62s-1.08-.16-1.52-.62c-.4-.43-.46-.89-.46-1.5v-3h.86v2.9Z"/>
      <path class="cls-3" d="M92.45,130.47v4.19h-.86v-4.19h-.53v-.79h.53v-1.8h.86v1.8h.86v.79h-.86Z"/>
      <path class="cls-3" d="M28.79,145.47c-.46-.58-1.12-.74-1.56-.74-.92,0-1.76.65-1.76,1.86s.86,1.85,1.75,1.85c.52,0,1.15-.23,1.61-.78v1.03c-.54.4-1.12.52-1.58.52-1.55,0-2.66-1.1-2.66-2.6s1.13-2.64,2.66-2.64c.79,0,1.31.31,1.55.48v1.03Z"/>
      <path class="cls-3" d="M29.83,146.59c0-1.51,1.12-2.63,2.64-2.63s2.64,1.12,2.64,2.63-1.13,2.61-2.64,2.61-2.64-1.1-2.64-2.61ZM30.72,146.59c0,1.22.86,1.85,1.75,1.85s1.75-.64,1.75-1.85-.84-1.86-1.75-1.86-1.75.65-1.75,1.86Z"/>
      <path class="cls-3" d="M36.43,144.08h.86v.53c.28-.41.71-.65,1.24-.65.9,0,1.26.64,1.35.8.48-.76,1.16-.8,1.5-.8,1.47,0,1.62,1.24,1.62,1.94v3.15h-.86v-3.02c0-.56-.07-1.31-.89-1.31-1,0-1.1.96-1.1,1.56v2.77h-.86v-2.95c0-.35.01-1.38-.9-1.38-.98,0-1.09,1.02-1.09,1.62v2.71h-.86v-4.98Z"/>
      <path class="cls-3" d="M44.65,144.08h.86v.53c.28-.41.71-.65,1.24-.65.9,0,1.26.64,1.35.8.48-.76,1.16-.8,1.5-.8,1.47,0,1.62,1.24,1.62,1.94v3.15h-.86v-3.02c0-.56-.07-1.31-.89-1.31-1,0-1.1.96-1.1,1.56v2.77h-.86v-2.95c0-.35.01-1.38-.9-1.38-.98,0-1.09,1.02-1.09,1.62v2.71h-.86v-4.98Z"/>
      <path class="cls-3" d="M52.56,146.59c0-1.51,1.12-2.63,2.64-2.63s2.64,1.12,2.64,2.63-1.13,2.61-2.64,2.61-2.64-1.1-2.64-2.61ZM53.45,146.59c0,1.22.86,1.85,1.75,1.85s1.75-.64,1.75-1.85-.84-1.86-1.75-1.86-1.75.65-1.75,1.86Z"/>
      <path class="cls-3" d="M59.16,144.08h.86v.58c.16-.2.6-.7,1.43-.7.59,0,1.13.24,1.43.68.25.37.29.78.29,1.33v3.08h-.86v-3.06c0-.3-.02-.65-.23-.91-.17-.22-.43-.36-.82-.36-.3,0-.62.08-.88.38-.34.4-.36.98-.36,1.34v2.6h-.86v-4.98Z"/>
      <path class="cls-3" d="M68.03,141.59c.34,0,.61.28.61.61s-.28.61-.61.61-.61-.28-.61-.61.28-.61.61-.61ZM68.46,144.08v4.98h-.86v-4.98h.86Z"/>
      <path class="cls-3" d="M72.14,145.23c-.12-.29-.37-.5-.7-.5s-.6.18-.6.56c0,.36.24.47.8.71.72.3,1.06.53,1.25.77.22.26.26.53.26.8,0,1.04-.75,1.63-1.71,1.63-.2,0-1.32-.02-1.74-1.27l.74-.31c.1.26.38.82,1.01.82.56,0,.82-.42.82-.79,0-.47-.34-.62-.8-.83-.6-.26-.98-.46-1.21-.73-.19-.24-.23-.48-.23-.73,0-.88.61-1.39,1.45-1.39.26,0,.97.05,1.37.9l-.71.37Z"/>
      <path class="cls-3" d="M76.36,145.23c-.12-.29-.37-.5-.7-.5s-.6.18-.6.56c0,.36.24.47.8.71.72.3,1.06.53,1.25.77.22.26.26.53.26.8,0,1.04-.75,1.63-1.71,1.63-.2,0-1.32-.02-1.74-1.27l.74-.31c.1.26.38.82,1.01.82.56,0,.82-.42.82-.79,0-.47-.34-.62-.8-.83-.6-.26-.98-.46-1.21-.73-.19-.24-.23-.48-.23-.73,0-.88.61-1.39,1.45-1.39.26,0,.97.05,1.37.9l-.71.37Z"/>
      <path class="cls-3" d="M79.4,146.98c0,.35,0,.76.24,1.07.13.17.4.38.88.38s.74-.22.88-.38c.24-.31.24-.72.24-1.07v-2.9h.86v3c0,.61-.06,1.07-.46,1.5-.44.47-1.03.62-1.52.62s-1.08-.16-1.52-.62c-.4-.43-.46-.89-.46-1.5v-3h.86v2.9Z"/>
      <path class="cls-3" d="M88.54,147.79c-.14.28-.36.58-.61.8-.46.41-1.02.61-1.66.61-1.2,0-2.46-.76-2.46-2.6,0-1.49.91-2.64,2.41-2.64.97,0,1.58.48,1.88.91.31.44.49,1.21.47,1.87h-3.87c.01,1.03.72,1.69,1.58,1.69.41,0,.73-.12,1.02-.36.23-.19.41-.44.52-.68l.72.4ZM87.69,146.03c-.14-.78-.73-1.3-1.46-1.3s-1.33.55-1.46,1.3h2.93Z"/>
      <path class="cls-3" d="M91.95,145.23c-.12-.29-.37-.5-.7-.5s-.6.18-.6.56c0,.36.24.47.8.71.72.3,1.06.53,1.25.77.22.26.26.53.26.8,0,1.04-.76,1.63-1.71,1.63-.2,0-1.32-.02-1.74-1.27l.74-.31c.1.26.38.82,1.01.82.56,0,.82-.42.82-.79,0-.47-.34-.62-.8-.83-.6-.26-.98-.46-1.21-.73-.19-.24-.23-.48-.23-.73,0-.88.61-1.39,1.45-1.39.26,0,.97.05,1.37.9l-.71.37Z"/>
    </g>
    <g>
      <path class="cls-3" d="M14.23,164.61c-.11-.22-.29-.46-.47-.6-.16-.12-.44-.28-.9-.28-.79,0-1.34.49-1.34,1.24,0,.31.08.49.3.7.24.24.54.37.84.5l.77.34c.47.2.9.42,1.24.76.41.41.58.88.58,1.45,0,1.48-1.09,2.46-2.53,2.46-.53,0-1.19-.11-1.74-.65-.4-.38-.64-.93-.74-1.42l.86-.24c.06.42.25.78.48,1.02.35.35.74.44,1.15.44,1.09,0,1.61-.78,1.61-1.58,0-.36-.11-.67-.4-.94-.23-.22-.54-.36-.96-.55l-.72-.34c-.31-.14-.71-.31-1.07-.66-.35-.34-.55-.71-.55-1.31,0-1.24.95-2.06,2.24-2.06.49,0,.89.1,1.28.36.32.22.6.54.78.89l-.71.47Z"/>
      <path class="cls-3" d="M17.54,166.84v4.19h-.86v-4.19h-.53v-.79h.53v-1.8h.86v1.8h.86v.79h-.86Z"/>
      <path class="cls-3" d="M18.91,168.55c0-1.51,1.12-2.63,2.64-2.63s2.64,1.12,2.64,2.63-1.13,2.62-2.64,2.62-2.64-1.1-2.64-2.62ZM19.8,168.55c0,1.22.86,1.85,1.75,1.85s1.75-.64,1.75-1.85-.84-1.86-1.75-1.86-1.75.65-1.75,1.86Z"/>
      <path class="cls-3" d="M25.51,166.05h.86v.54c.08-.13.46-.66,1.13-.66.26,0,.55.1.77.2l-.41.78c-.19-.13-.37-.17-.5-.17-.35,0-.56.14-.7.31-.14.19-.29.53-.29,1.34v2.63h-.86v-4.98Z"/>
      <path class="cls-3" d="M32.63,166.05h.86v4.98h-.86v-.7c-.29.37-.83.84-1.7.84-1.26,0-2.42-.89-2.42-2.64s1.15-2.6,2.42-2.6c.96,0,1.47.53,1.7.83v-.71ZM29.39,168.53c0,1.07.6,1.87,1.63,1.87s1.66-.88,1.66-1.86c0-1.28-.89-1.85-1.66-1.85-.85,0-1.63.62-1.63,1.83Z"/>
      <path class="cls-3" d="M38.94,166.05h.86v4.86c0,.54,0,1.31-.48,1.96-.37.5-1.05.92-1.99.92-.85,0-1.44-.34-1.78-.67s-.65-.88-.65-1.61h.85c0,.42.17.79.38,1.03.36.4.82.48,1.2.48.61,0,1.03-.22,1.32-.7.25-.41.28-.85.28-1.27v-.72c-.29.37-.83.84-1.7.84-.73,0-1.32-.29-1.7-.67-.33-.34-.72-.96-.72-1.97s.36-1.57.72-1.93c.42-.41,1.03-.67,1.7-.67.73,0,1.31.31,1.7.83v-.71ZM36.2,167.16c-.42.43-.5.96-.5,1.37,0,.43.08,1.02.56,1.46.28.25.61.41,1.07.41s.82-.14,1.09-.42c.34-.32.56-.85.56-1.44s-.22-1.1-.53-1.4c-.28-.28-.68-.44-1.13-.44-.53,0-.89.23-1.13.47Z"/>
      <path class="cls-3" d="M45.85,169.75c-.14.28-.36.58-.61.8-.46.41-1.02.61-1.66.61-1.2,0-2.46-.76-2.46-2.6,0-1.49.91-2.64,2.41-2.64.97,0,1.58.48,1.88.91.31.44.49,1.21.47,1.87h-3.87c.01,1.03.72,1.69,1.58,1.69.41,0,.73-.12,1.02-.36.23-.19.41-.44.52-.68l.72.4ZM45,167.99c-.14-.78-.73-1.3-1.46-1.3s-1.33.55-1.46,1.3h2.93Z"/>
      <path class="cls-3" d="M53.82,162.28h.86v8.74h-.86v-.7c-.29.37-.83.84-1.7.84-1.26,0-2.42-.89-2.42-2.64s1.15-2.6,2.42-2.6c.96,0,1.48.53,1.7.83v-4.47ZM50.58,168.53c0,1.07.6,1.87,1.63,1.87s1.65-.88,1.65-1.86c0-1.28-.89-1.85-1.65-1.85-.85,0-1.63.62-1.63,1.83Z"/>
      <path class="cls-3" d="M60.13,166.05h.86v4.98h-.86v-.7c-.29.37-.83.84-1.7.84-1.26,0-2.42-.89-2.42-2.64s1.15-2.6,2.42-2.6c.96,0,1.47.53,1.7.83v-.71ZM56.89,168.53c0,1.07.6,1.87,1.63,1.87s1.66-.88,1.66-1.86c0-1.28-.89-1.85-1.66-1.85-.85,0-1.63.62-1.63,1.83Z"/>
      <path class="cls-3" d="M63.51,166.84v4.19h-.86v-4.19h-.53v-.79h.53v-1.8h.86v1.8h.86v.79h-.86Z"/>
      <path class="cls-3" d="M69.01,166.05h.86v4.98h-.86v-.7c-.29.37-.83.84-1.7.84-1.26,0-2.42-.89-2.42-2.64s1.15-2.6,2.42-2.6c.96,0,1.47.53,1.7.83v-.71ZM65.77,168.53c0,1.07.6,1.87,1.63,1.87s1.66-.88,1.66-1.86c0-1.28-.89-1.85-1.66-1.85-.85,0-1.63.62-1.63,1.83Z"/>
      <path class="cls-3" d="M72.37,171.02h-.86v-8.74h.86v4.46c.59-.73,1.34-.82,1.7-.82,1.56,0,2.42,1.3,2.42,2.64s-.88,2.6-2.39,2.6c-.8,0-1.37-.36-1.74-.84v.7ZM75.61,168.56c0-1.22-.83-1.87-1.63-1.87s-1.66.66-1.66,1.86c0,1.02.65,1.85,1.67,1.85s1.62-.84,1.62-1.83Z"/>
      <path class="cls-3" d="M81.63,166.05h.86v4.98h-.86v-.7c-.29.37-.83.84-1.7.84-1.26,0-2.42-.89-2.42-2.64s1.15-2.6,2.42-2.6c.96,0,1.47.53,1.7.83v-.71ZM78.39,168.53c0,1.07.6,1.87,1.63,1.87s1.66-.88,1.66-1.86c0-1.28-.89-1.85-1.66-1.85-.85,0-1.63.62-1.63,1.83Z"/>
      <path class="cls-3" d="M86.18,167.2c-.12-.29-.37-.5-.7-.5s-.6.18-.6.56c0,.36.24.47.8.71.72.3,1.06.53,1.25.77.22.26.26.53.26.8,0,1.04-.76,1.63-1.71,1.63-.2,0-1.32-.02-1.74-1.27l.74-.31c.1.26.38.82,1.01.82.56,0,.82-.42.82-.79,0-.47-.34-.62-.8-.83-.6-.26-.98-.46-1.21-.73-.19-.24-.23-.48-.23-.73,0-.88.61-1.39,1.45-1.39.26,0,.97.05,1.37.9l-.71.37Z"/>
      <path class="cls-3" d="M92.77,169.75c-.14.28-.36.58-.61.8-.46.41-1.02.61-1.66.61-1.2,0-2.46-.76-2.46-2.6,0-1.49.91-2.64,2.41-2.64.97,0,1.58.48,1.88.91.31.44.49,1.21.47,1.87h-3.87c.01,1.03.72,1.69,1.58,1.69.41,0,.73-.12,1.02-.36.23-.19.41-.44.52-.68l.72.4ZM91.92,167.99c-.14-.78-.73-1.3-1.46-1.3s-1.33.55-1.46,1.3h2.93Z"/>
      <path class="cls-3" d="M51.95,181.24v4.19h-.86v-4.19h-.48v-.79h.48v-2.17c0-.46.04-1.03.48-1.4.24-.2.6-.32,1-.32.31,0,.52.07.61.11v.84c-.18-.07-.38-.11-.56-.11-.19,0-.42.05-.55.26-.11.18-.11.46-.11.72v2.08h1.22v.79h-1.22Z"/>
      <path class="cls-3" d="M53.63,182.95c0-1.51,1.12-2.63,2.64-2.63s2.64,1.12,2.64,2.63-1.13,2.61-2.64,2.61-2.64-1.1-2.64-2.61ZM54.51,182.95c0,1.22.86,1.85,1.75,1.85s1.75-.64,1.75-1.85-.84-1.86-1.75-1.86-1.75.65-1.75,1.86Z"/>
      <path class="cls-3" d="M60.23,180.45h.86v.54c.08-.13.46-.66,1.13-.66.26,0,.55.1.77.2l-.41.78c-.19-.13-.37-.17-.5-.17-.35,0-.56.14-.7.31-.14.19-.29.53-.29,1.34v2.63h-.86v-4.98Z"/>
      <path class="cls-3" d="M67.44,188.18h-.86v-7.74h.86v.7c.59-.73,1.34-.82,1.7-.82,1.56,0,2.42,1.3,2.42,2.64s-.88,2.6-2.39,2.6c-.8,0-1.37-.36-1.74-.84v3.45ZM70.68,182.96c0-1.22-.83-1.87-1.63-1.87s-1.66.66-1.66,1.86c0,1.02.65,1.85,1.67,1.85s1.62-.84,1.62-1.83Z"/>
      <path class="cls-3" d="M73.75,176.68v8.74h-.86v-8.74h.86Z"/>
      <path class="cls-3" d="M79.2,180.45h.86v4.98h-.86v-.7c-.29.37-.83.84-1.7.84-1.26,0-2.42-.89-2.42-2.64s1.15-2.6,2.42-2.6c.96,0,1.48.53,1.7.83v-.71ZM75.96,182.93c0,1.07.6,1.87,1.63,1.87s1.65-.88,1.65-1.86c0-1.28-.89-1.85-1.65-1.85-.85,0-1.63.62-1.63,1.83Z"/>
      <path class="cls-3" d="M81.69,180.45h.86v.58c.16-.2.6-.7,1.43-.7.59,0,1.13.24,1.43.68.25.37.29.78.29,1.33v3.08h-.86v-3.06c0-.3-.02-.65-.23-.91-.17-.22-.43-.36-.82-.36-.3,0-.62.08-.88.38-.34.4-.36.98-.36,1.34v2.6h-.86v-4.98Z"/>
      <path class="cls-3" d="M88.22,181.24v4.19h-.86v-4.19h-.53v-.79h.53v-1.8h.86v1.8h.86v.79h-.86Z"/>
      <path class="cls-3" d="M91.95,181.6c-.12-.29-.37-.5-.7-.5s-.6.18-.6.56c0,.36.24.47.8.71.72.3,1.06.53,1.25.77.22.26.26.53.26.8,0,1.04-.76,1.63-1.71,1.63-.2,0-1.32-.02-1.74-1.27l.74-.31c.1.26.38.82,1.01.82.56,0,.82-.42.82-.79,0-.47-.34-.62-.8-.83-.6-.26-.98-.46-1.21-.73-.19-.24-.23-.48-.23-.73,0-.88.61-1.39,1.45-1.39.26,0,.97.05,1.37.9l-.71.37Z"/>
    </g>
    <g>
      <path class="cls-3" d="M7.14,201.9h1.63c.8,0,1.94.08,2.95.94.73.61,1.37,1.63,1.37,3.07,0,1.68-.83,2.58-1.4,3.07-.73.62-1.5.92-2.93.92h-1.62v-8ZM8.03,209.06h.78c.63,0,1.51-.07,2.29-.72.6-.5,1.08-1.3,1.08-2.43,0-1.92-1.34-3.17-3.37-3.17h-.78v6.32Z"/>
      <path class="cls-3" d="M18.32,204.92h.86v4.98h-.86v-.7c-.29.37-.83.84-1.7.84-1.26,0-2.42-.89-2.42-2.64s1.15-2.6,2.42-2.6c.96,0,1.47.53,1.7.83v-.71ZM15.08,207.4c0,1.07.6,1.87,1.63,1.87s1.66-.88,1.66-1.86c0-1.28-.89-1.85-1.66-1.85-.85,0-1.63.62-1.63,1.83Z"/>
      <path class="cls-3" d="M21.71,205.71v4.19h-.86v-4.19h-.53v-.79h.53v-1.8h.86v1.8h.86v.79h-.86Z"/>
      <path class="cls-3" d="M27.2,204.92h.86v4.98h-.86v-.7c-.29.37-.83.84-1.7.84-1.26,0-2.42-.89-2.42-2.64s1.15-2.6,2.42-2.6c.96,0,1.47.53,1.7.83v-.71ZM23.96,207.4c0,1.07.6,1.87,1.63,1.87s1.66-.88,1.66-1.86c0-1.28-.89-1.85-1.66-1.85-.85,0-1.63.62-1.63,1.83Z"/>
      <path class="cls-3" d="M32.73,204.92l1.49,3.36,1.49-3.36h.96l-2.45,5.3-2.45-5.3h.96Z"/>
      <path class="cls-3" d="M38.01,202.42c.34,0,.61.28.61.61s-.28.61-.61.61-.61-.28-.61-.61.28-.61.61-.61ZM38.45,204.92v4.98h-.86v-4.98h.86Z"/>
      <path class="cls-3" d="M42.13,206.07c-.12-.29-.37-.5-.7-.5s-.6.18-.6.56c0,.36.24.47.8.71.72.3,1.06.53,1.25.77.22.26.26.53.26.8,0,1.04-.76,1.63-1.71,1.63-.2,0-1.32-.02-1.74-1.27l.74-.31c.1.26.38.82,1.01.82.56,0,.82-.42.82-.79,0-.47-.34-.62-.8-.83-.6-.26-.98-.46-1.21-.73-.19-.24-.23-.48-.23-.73,0-.88.61-1.39,1.45-1.39.26,0,.97.05,1.37.9l-.71.37Z"/>
      <path class="cls-3" d="M45.17,207.82c0,.35,0,.75.24,1.07.13.17.4.38.88.38s.74-.22.88-.38c.24-.31.24-.72.24-1.07v-2.9h.86v3c0,.61-.06,1.07-.46,1.5-.44.47-1.03.62-1.52.62s-1.08-.16-1.52-.62c-.4-.43-.46-.89-.46-1.5v-3h.86v2.9Z"/>
      <path class="cls-3" d="M53.71,204.92h.86v4.98h-.86v-.7c-.29.37-.83.84-1.7.84-1.26,0-2.42-.89-2.42-2.64s1.15-2.6,2.42-2.6c.96,0,1.47.53,1.7.83v-.71ZM50.47,207.4c0,1.07.6,1.87,1.63,1.87s1.66-.88,1.66-1.86c0-1.28-.89-1.85-1.66-1.85-.85,0-1.63.62-1.63,1.83Z"/>
      <path class="cls-3" d="M57.07,201.15v8.74h-.86v-8.74h.86Z"/>
      <path class="cls-3" d="M59.13,202.42c.34,0,.61.28.61.61s-.28.61-.61.61-.61-.28-.61-.61.28-.61.61-.61ZM59.57,204.92v4.98h-.86v-4.98h.86Z"/>
      <path class="cls-3" d="M62.21,209.1h3.45v.79h-5.18l3.6-4.19h-2.9v-.79h4.63l-3.6,4.19Z"/>
      <path class="cls-3" d="M70.41,204.92h.86v4.98h-.86v-.7c-.29.37-.83.84-1.7.84-1.26,0-2.42-.89-2.42-2.64s1.15-2.6,2.42-2.6c.96,0,1.47.53,1.7.83v-.71ZM67.17,207.4c0,1.07.6,1.87,1.63,1.87s1.66-.88,1.66-1.86c0-1.28-.89-1.85-1.66-1.85-.85,0-1.63.62-1.63,1.83Z"/>
      <path class="cls-3" d="M73.8,205.71v4.19h-.86v-4.19h-.53v-.79h.53v-1.8h.86v1.8h.86v.79h-.86Z"/>
      <path class="cls-3" d="M75.91,202.42c.34,0,.61.28.61.61s-.28.61-.61.61-.61-.28-.61-.61.28-.61.61-.61ZM76.34,204.92v4.98h-.86v-4.98h.86Z"/>
      <path class="cls-3" d="M77.66,207.42c0-1.51,1.12-2.63,2.64-2.63s2.64,1.12,2.64,2.63-1.13,2.62-2.64,2.62-2.64-1.1-2.64-2.62ZM78.55,207.42c0,1.22.86,1.85,1.75,1.85s1.75-.64,1.75-1.85-.84-1.86-1.75-1.86-1.75.65-1.75,1.86Z"/>
      <path class="cls-3" d="M84.26,204.92h.86v.58c.16-.2.6-.7,1.43-.7.59,0,1.13.24,1.43.68.25.37.29.78.29,1.33v3.08h-.86v-3.06c0-.3-.02-.65-.23-.91-.17-.22-.43-.36-.82-.36-.3,0-.62.08-.88.38-.34.4-.36.98-.36,1.34v2.6h-.86v-4.98Z"/>
      <path class="cls-3" d="M91.95,206.07c-.12-.29-.37-.5-.7-.5s-.6.18-.6.56c0,.36.24.47.8.71.72.3,1.06.53,1.25.77.22.26.26.53.26.8,0,1.04-.75,1.63-1.71,1.63-.2,0-1.32-.02-1.74-1.27l.74-.31c.1.26.38.82,1.01.82.56,0,.82-.42.82-.79,0-.47-.34-.62-.8-.83-.6-.26-.98-.46-1.21-.73-.19-.24-.23-.48-.23-.73,0-.88.61-1.39,1.45-1.39.26,0,.97.05,1.37.9l-.71.37Z"/>
      <path class="cls-3" d="M19.45,220.11v4.19h-.86v-4.19h-.48v-.79h.48v-2.17c0-.46.04-1.03.48-1.4.24-.2.6-.32,1-.32.31,0,.52.07.61.11v.84c-.18-.07-.38-.11-.56-.11-.19,0-.42.05-.55.26-.11.18-.11.46-.11.72v2.08h1.22v.79h-1.22Z"/>
      <path class="cls-3" d="M21.13,221.83c0-1.51,1.12-2.63,2.64-2.63s2.64,1.12,2.64,2.63-1.13,2.61-2.64,2.61-2.64-1.1-2.64-2.61ZM22.02,221.83c0,1.22.86,1.85,1.75,1.85s1.75-.64,1.75-1.85-.84-1.86-1.75-1.86-1.75.65-1.75,1.86Z"/>
      <path class="cls-3" d="M27.73,219.32h.86v.54c.08-.13.46-.66,1.13-.66.26,0,.55.1.77.2l-.41.78c-.19-.13-.37-.17-.5-.17-.35,0-.56.14-.7.31-.14.19-.29.53-.29,1.34v2.63h-.86v-4.98Z"/>
      <path class="cls-3" d="M34.94,227.05h-.86v-7.74h.86v.7c.59-.73,1.34-.82,1.7-.82,1.56,0,2.42,1.3,2.42,2.64s-.88,2.6-2.39,2.6c-.8,0-1.37-.36-1.74-.84v3.45ZM38.18,221.84c0-1.22-.83-1.87-1.63-1.87s-1.66.66-1.66,1.86c0,1.02.65,1.85,1.67,1.85s1.62-.84,1.62-1.83Z"/>
      <path class="cls-3" d="M44.2,219.32h.86v4.98h-.86v-.7c-.29.37-.83.84-1.7.84-1.26,0-2.42-.89-2.42-2.64s1.15-2.6,2.42-2.6c.96,0,1.48.53,1.7.83v-.71ZM40.97,221.8c0,1.07.6,1.87,1.63,1.87s1.65-.88,1.65-1.86c0-1.28-.89-1.85-1.65-1.85-.85,0-1.63.62-1.63,1.83Z"/>
      <path class="cls-3" d="M48.75,220.47c-.12-.29-.37-.5-.7-.5s-.6.18-.6.56c0,.36.24.47.8.71.72.3,1.06.53,1.25.77.22.26.26.53.26.8,0,1.04-.75,1.63-1.71,1.63-.2,0-1.32-.02-1.74-1.27l.74-.31c.1.26.38.82,1.01.82.56,0,.82-.42.82-.79,0-.47-.34-.62-.8-.83-.6-.26-.98-.46-1.21-.73-.19-.24-.23-.48-.23-.73,0-.88.61-1.39,1.45-1.39.26,0,.97.05,1.37.9l-.71.37Z"/>
      <path class="cls-3" d="M51.81,220.11v4.19h-.86v-4.19h-.53v-.79h.53v-1.8h.86v1.8h.86v.79h-.86Z"/>
      <path class="cls-3" d="M60.1,219.32h.86v4.86c0,.54,0,1.31-.48,1.96-.37.5-1.05.92-1.99.92-.85,0-1.44-.33-1.78-.67s-.65-.88-.65-1.61h.85c0,.42.17.79.38,1.03.36.4.82.48,1.2.48.61,0,1.03-.22,1.32-.7.25-.41.28-.85.28-1.27v-.72c-.29.37-.83.84-1.7.84-.73,0-1.32-.29-1.7-.67-.33-.33-.72-.96-.72-1.97s.36-1.57.72-1.93c.42-.41,1.03-.67,1.7-.67.73,0,1.31.31,1.7.83v-.71ZM57.37,220.43c-.42.43-.5.96-.5,1.37,0,.43.08,1.02.56,1.46.28.25.61.41,1.07.41s.82-.14,1.09-.42c.34-.32.56-.85.56-1.44s-.22-1.1-.53-1.4c-.28-.28-.68-.44-1.13-.44-.53,0-.89.23-1.13.47Z"/>
      <path class="cls-3" d="M66.42,219.32h.86v4.98h-.86v-.7c-.29.37-.83.84-1.7.84-1.26,0-2.42-.89-2.42-2.64s1.15-2.6,2.42-2.6c.96,0,1.47.53,1.7.83v-.71ZM63.18,221.8c0,1.07.6,1.87,1.63,1.87s1.66-.88,1.66-1.86c0-1.28-.89-1.85-1.66-1.85-.85,0-1.63.62-1.63,1.83Z"/>
      <path class="cls-3" d="M68.91,219.32h.86v.54c.08-.13.46-.66,1.13-.66.26,0,.55.1.77.2l-.41.78c-.19-.13-.37-.17-.5-.17-.35,0-.56.14-.7.31-.14.19-.29.53-.29,1.34v2.63h-.86v-4.98Z"/>
      <path class="cls-3" d="M75.99,215.55h.86v8.74h-.86v-.7c-.29.37-.83.84-1.7.84-1.26,0-2.42-.89-2.42-2.64s1.15-2.6,2.42-2.6c.96,0,1.47.53,1.7.83v-4.47ZM72.75,221.8c0,1.07.6,1.87,1.63,1.87s1.66-.88,1.66-1.86c0-1.28-.89-1.85-1.66-1.85-.85,0-1.63.62-1.63,1.83Z"/>
      <path class="cls-3" d="M82.9,223.02c-.14.28-.36.58-.61.8-.46.41-1.02.61-1.66.61-1.2,0-2.46-.76-2.46-2.6,0-1.49.91-2.64,2.41-2.64.97,0,1.58.48,1.88.91.31.44.49,1.21.47,1.87h-3.87c.01,1.03.72,1.69,1.58,1.69.41,0,.73-.12,1.02-.36.23-.19.41-.44.52-.68l.72.4ZM82.05,221.26c-.14-.78-.73-1.3-1.46-1.3s-1.33.55-1.46,1.3h2.93Z"/>
      <path class="cls-3" d="M84.26,219.32h.86v.58c.16-.2.6-.7,1.43-.7.59,0,1.13.24,1.43.68.25.37.29.78.29,1.33v3.08h-.86v-3.06c0-.3-.02-.65-.23-.91-.17-.22-.43-.36-.82-.36-.3,0-.62.08-.88.38-.34.4-.36.98-.36,1.34v2.6h-.86v-4.98Z"/>
      <path class="cls-3" d="M91.95,220.47c-.12-.29-.37-.5-.7-.5s-.6.18-.6.56c0,.36.24.47.8.71.72.3,1.06.53,1.25.77.22.26.26.53.26.8,0,1.04-.75,1.63-1.71,1.63-.2,0-1.32-.02-1.74-1.27l.74-.31c.1.26.38.82,1.01.82.56,0,.82-.42.82-.79,0-.47-.34-.62-.8-.83-.6-.26-.98-.46-1.21-.73-.19-.24-.23-.48-.23-.73,0-.88.61-1.39,1.45-1.39.26,0,.97.05,1.37.9l-.71.37Z"/>
    </g>
    <g>
      <path class="cls-3" d="M60.01,247.68c.54,0,1.34.04,1.94.44.47.31.88.92.88,1.77,0,1.22-.8,2.12-2.01,2.21l2.54,3.57h-1.08l-2.43-3.5h-.23v3.5h-.89v-8h1.28ZM59.61,251.38h.56c1.1,0,1.76-.53,1.76-1.46,0-.44-.13-.89-.64-1.18-.36-.2-.77-.23-1.15-.23h-.54v2.87Z"/>
      <path class="cls-3" d="M68.71,254.41c-.14.28-.36.58-.61.8-.46.41-1.02.61-1.66.61-1.2,0-2.46-.75-2.46-2.6,0-1.49.91-2.64,2.41-2.64.97,0,1.58.48,1.88.91.31.44.49,1.21.47,1.87h-3.87c.01,1.03.72,1.69,1.58,1.69.41,0,.73-.12,1.02-.36.23-.19.41-.44.52-.68l.72.4ZM67.86,252.64c-.14-.78-.73-1.3-1.46-1.3s-1.33.55-1.46,1.3h2.93Z"/>
      <path class="cls-3" d="M73.96,252.09c-.46-.58-1.12-.74-1.56-.74-.92,0-1.76.65-1.76,1.86s.86,1.85,1.75,1.85c.52,0,1.15-.23,1.61-.78v1.03c-.54.4-1.12.52-1.58.52-1.55,0-2.66-1.1-2.66-2.6s1.13-2.64,2.66-2.64c.79,0,1.31.31,1.55.48v1.03Z"/>
      <path class="cls-3" d="M75.75,248.21c.34,0,.61.28.61.61s-.28.61-.61.61-.61-.28-.61-.61.28-.61.61-.61ZM76.19,250.7v4.98h-.86v-4.98h.86Z"/>
      <path class="cls-3" d="M78.68,258.44h-.86v-7.74h.86v.7c.59-.73,1.34-.82,1.7-.82,1.56,0,2.42,1.3,2.42,2.64s-.88,2.6-2.39,2.6c-.8,0-1.37-.36-1.74-.84v3.45ZM81.92,253.22c0-1.22-.83-1.87-1.63-1.87s-1.66.66-1.66,1.86c0,1.02.65,1.85,1.67,1.85s1.62-.84,1.62-1.83Z"/>
      <path class="cls-3" d="M88.54,254.41c-.14.28-.36.58-.61.8-.46.41-1.02.61-1.66.61-1.2,0-2.46-.75-2.46-2.6,0-1.49.91-2.64,2.41-2.64.97,0,1.58.48,1.88.91.31.44.49,1.21.47,1.87h-3.87c.01,1.03.72,1.69,1.58,1.69.41,0,.73-.12,1.02-.36.23-.19.41-.44.52-.68l.72.4ZM87.69,252.64c-.14-.78-.73-1.3-1.46-1.3s-1.33.55-1.46,1.3h2.93Z"/>
      <path class="cls-3" d="M91.95,251.85c-.12-.29-.37-.5-.7-.5s-.6.18-.6.56c0,.36.24.47.8.71.72.3,1.06.53,1.25.77.22.26.26.53.26.8,0,1.04-.75,1.63-1.71,1.63-.2,0-1.32-.02-1.74-1.27l.74-.31c.1.26.38.82,1.01.82.56,0,.82-.42.82-.79,0-.47-.34-.62-.8-.83-.6-.26-.98-.46-1.21-.73-.19-.24-.23-.48-.23-.73,0-.88.61-1.39,1.45-1.39.26,0,.97.05,1.37.9l-.71.37Z"/>
    </g>
    <g>
      <path class="cls-3" d="M37.03,280.21c-.25-.25-.64-.55-1.04-.74-.42-.19-.91-.31-1.38-.31-1.85,0-3.21,1.49-3.21,3.33,0,2.17,1.76,3.26,3.23,3.26.54,0,1.07-.16,1.49-.37.46-.23.78-.53.92-.67v1.1c-.89.64-1.81.78-2.41.78-2.38,0-4.14-1.8-4.14-4.11s1.79-4.16,4.19-4.16c.48,0,1.4.06,2.36.79v1.1Z"/>
      <path class="cls-3" d="M39.31,284.37c0,.35,0,.76.24,1.07.13.17.4.38.88.38s.74-.22.88-.38c.24-.31.24-.72.24-1.07v-2.9h.86v3c0,.61-.06,1.07-.46,1.5-.44.47-1.03.62-1.52.62s-1.08-.16-1.52-.62c-.4-.43-.46-.89-.46-1.5v-3h.86v2.9Z"/>
      <path class="cls-3" d="M46.09,282.62c-.12-.29-.37-.5-.7-.5s-.6.18-.6.56c0,.36.24.47.8.71.72.3,1.06.53,1.25.77.22.26.26.53.26.8,0,1.04-.76,1.63-1.71,1.63-.2,0-1.32-.02-1.74-1.27l.74-.31c.1.26.38.82,1.01.82.56,0,.82-.42.82-.79,0-.47-.34-.62-.8-.83-.6-.26-.98-.46-1.21-.73-.19-.24-.23-.48-.23-.73,0-.88.61-1.39,1.45-1.39.26,0,.97.05,1.37.9l-.71.37Z"/>
      <path class="cls-3" d="M49.15,282.26v4.19h-.86v-4.19h-.53v-.79h.53v-1.8h.86v1.8h.86v.79h-.86Z"/>
      <path class="cls-3" d="M50.52,283.97c0-1.51,1.12-2.63,2.64-2.63s2.64,1.12,2.64,2.63-1.13,2.61-2.64,2.61-2.64-1.1-2.64-2.61ZM51.41,283.97c0,1.22.86,1.85,1.75,1.85s1.75-.64,1.75-1.85-.84-1.86-1.75-1.86-1.75.65-1.75,1.86Z"/>
      <path class="cls-3" d="M57.12,281.46h.86v.53c.28-.41.71-.65,1.24-.65.9,0,1.26.64,1.36.8.48-.75,1.16-.8,1.5-.8,1.48,0,1.62,1.24,1.62,1.94v3.15h-.86v-3.02c0-.56-.07-1.31-.89-1.31-1,0-1.1.96-1.1,1.56v2.77h-.86v-2.95c0-.35.01-1.38-.9-1.38-.98,0-1.09,1.02-1.09,1.62v2.71h-.86v-4.98Z"/>
      <path class="cls-3" d="M65.77,278.97c.34,0,.61.28.61.61s-.28.61-.61.61-.61-.28-.61-.61.28-.61.61-.61ZM66.2,281.46v4.98h-.86v-4.98h.86Z"/>
      <path class="cls-3" d="M68.84,285.65h3.45v.79h-5.18l3.6-4.19h-2.9v-.79h4.63l-3.6,4.19Z"/>
      <path class="cls-3" d="M77.05,281.46h.86v4.98h-.86v-.7c-.29.37-.83.84-1.7.84-1.26,0-2.42-.89-2.42-2.64s1.15-2.6,2.42-2.6c.96,0,1.47.53,1.7.83v-.71ZM73.81,283.95c0,1.07.6,1.87,1.63,1.87s1.66-.88,1.66-1.86c0-1.28-.89-1.85-1.66-1.85-.85,0-1.63.62-1.63,1.84Z"/>
      <path class="cls-3" d="M80.41,286.44h-.86v-8.74h.86v4.46c.59-.73,1.34-.82,1.7-.82,1.56,0,2.42,1.3,2.42,2.64s-.88,2.6-2.39,2.6c-.8,0-1.37-.36-1.74-.84v.7ZM83.65,283.98c0-1.22-.83-1.87-1.63-1.87s-1.66.66-1.66,1.86c0,1.02.65,1.85,1.67,1.85s1.62-.84,1.62-1.83Z"/>
      <path class="cls-3" d="M86.72,277.7v8.74h-.86v-8.74h.86Z"/>
      <path class="cls-3" d="M92.77,285.17c-.14.28-.36.58-.61.8-.46.41-1.02.61-1.66.61-1.2,0-2.46-.75-2.46-2.6,0-1.49.91-2.64,2.41-2.64.97,0,1.58.48,1.88.91.31.44.49,1.21.47,1.87h-3.87c.01,1.03.72,1.69,1.58,1.69.41,0,.73-.12,1.02-.36.23-.19.41-.44.52-.68l.72.4ZM91.92,283.41c-.14-.78-.73-1.3-1.46-1.3s-1.33.55-1.46,1.3h2.93Z"/>
      <path class="cls-3" d="M4.13,295.86h.86v4.86c0,.54,0,1.31-.48,1.96-.37.5-1.05.92-1.99.92-.85,0-1.44-.34-1.78-.67s-.65-.88-.65-1.61h.85c0,.42.17.79.38,1.03.36.4.82.48,1.2.48.61,0,1.03-.22,1.32-.7.25-.41.28-.85.28-1.27v-.72c-.29.37-.83.84-1.7.84-.73,0-1.32-.29-1.7-.67-.33-.34-.72-.96-.72-1.97s.36-1.57.72-1.93c.42-.41,1.03-.67,1.7-.67.73,0,1.31.31,1.7.83v-.71ZM1.39,296.98c-.42.43-.5.96-.5,1.37,0,.43.08,1.02.56,1.46.28.25.61.41,1.07.41s.82-.14,1.09-.42c.34-.32.56-.85.56-1.44s-.22-1.1-.53-1.4c-.28-.28-.68-.44-1.13-.44-.53,0-.89.23-1.13.47Z"/>
      <path class="cls-3" d="M10.44,295.86h.86v4.98h-.86v-.7c-.29.37-.83.84-1.7.84-1.26,0-2.42-.89-2.42-2.64s1.15-2.6,2.42-2.6c.96,0,1.47.53,1.7.83v-.71ZM7.2,298.35c0,1.07.6,1.87,1.63,1.87s1.66-.88,1.66-1.86c0-1.28-.89-1.85-1.66-1.85-.85,0-1.63.62-1.63,1.83Z"/>
      <path class="cls-3" d="M12.94,295.86h.86v.54c.08-.13.46-.66,1.13-.66.26,0,.55.1.77.2l-.41.78c-.19-.13-.37-.17-.5-.17-.35,0-.56.14-.7.31-.14.19-.29.53-.29,1.34v2.63h-.86v-4.98Z"/>
      <path class="cls-3" d="M20.01,292.1h.86v8.74h-.86v-.7c-.29.37-.83.84-1.7.84-1.26,0-2.42-.89-2.42-2.64s1.15-2.6,2.42-2.6c.96,0,1.48.53,1.7.83v-4.47ZM16.77,298.35c0,1.07.6,1.87,1.63,1.87s1.65-.88,1.65-1.86c0-1.28-.89-1.85-1.65-1.85-.85,0-1.63.62-1.63,1.83Z"/>
      <path class="cls-3" d="M26.92,299.57c-.14.28-.36.58-.61.8-.46.41-1.02.61-1.66.61-1.2,0-2.46-.75-2.46-2.6,0-1.49.91-2.64,2.41-2.64.97,0,1.58.48,1.88.91.31.44.49,1.21.47,1.87h-3.87c.01,1.03.72,1.69,1.58,1.69.41,0,.73-.12,1.02-.36.23-.19.41-.44.52-.68l.72.4ZM26.07,297.81c-.14-.78-.73-1.3-1.46-1.3s-1.33.55-1.46,1.3h2.93Z"/>
      <path class="cls-3" d="M28.28,295.86h.86v.58c.16-.2.6-.7,1.43-.7.59,0,1.13.24,1.43.68.25.37.29.78.29,1.33v3.08h-.86v-3.06c0-.3-.02-.65-.23-.91-.17-.22-.43-.36-.82-.36-.3,0-.62.08-.88.38-.34.4-.36.98-.36,1.34v2.6h-.86v-4.98Z"/>
      <path class="cls-3" d="M36.96,295.86l1.49,3.36,1.49-3.36h.96l-2.45,5.3-2.45-5.3h.96Z"/>
      <path class="cls-3" d="M42.24,293.37c.34,0,.61.28.61.61s-.28.61-.61.61-.61-.28-.61-.61.28-.61.61-.61ZM42.67,295.86v4.98h-.86v-4.98h.86Z"/>
      <path class="cls-3" d="M46.35,297.01c-.12-.29-.37-.5-.7-.5s-.6.18-.6.56c0,.36.24.47.8.71.72.3,1.06.53,1.25.77.22.26.26.53.26.8,0,1.04-.76,1.63-1.71,1.63-.2,0-1.32-.02-1.74-1.27l.74-.31c.1.26.38.82,1.01.82.56,0,.82-.42.82-.79,0-.47-.34-.62-.8-.83-.6-.26-.98-.46-1.21-.73-.19-.24-.23-.48-.23-.73,0-.88.61-1.39,1.45-1.39.26,0,.97.05,1.37.9l-.71.37Z"/>
      <path class="cls-3" d="M49.39,298.77c0,.35,0,.76.24,1.07.13.17.4.38.88.38s.74-.22.88-.38c.24-.31.24-.72.24-1.07v-2.9h.86v3c0,.61-.06,1.07-.46,1.5-.44.47-1.03.62-1.52.62s-1.08-.16-1.52-.62c-.4-.43-.46-.89-.46-1.5v-3h.86v2.9Z"/>
      <path class="cls-3" d="M57.93,295.86h.86v4.98h-.86v-.7c-.29.37-.83.84-1.7.84-1.26,0-2.42-.89-2.42-2.64s1.15-2.6,2.42-2.6c.96,0,1.48.53,1.7.83v-.71ZM54.69,298.35c0,1.07.6,1.87,1.63,1.87s1.65-.88,1.65-1.86c0-1.28-.89-1.85-1.65-1.85-.85,0-1.63.62-1.63,1.83Z"/>
      <path class="cls-3" d="M61.29,292.1v8.74h-.86v-8.74h.86Z"/>
      <path class="cls-3" d="M63.36,293.37c.34,0,.61.28.61.61s-.28.61-.61.61-.61-.28-.61-.61.28-.61.61-.61ZM63.79,295.86v4.98h-.86v-4.98h.86Z"/>
      <path class="cls-3" d="M66.43,300.05h3.45v.79h-5.18l3.6-4.19h-2.9v-.79h4.63l-3.6,4.19Z"/>
      <path class="cls-3" d="M74.64,295.86h.86v4.98h-.86v-.7c-.29.37-.83.84-1.7.84-1.26,0-2.42-.89-2.42-2.64s1.15-2.6,2.42-2.6c.96,0,1.47.53,1.7.83v-.71ZM71.4,298.35c0,1.07.6,1.87,1.63,1.87s1.66-.88,1.66-1.86c0-1.28-.89-1.85-1.66-1.85-.85,0-1.63.62-1.63,1.83Z"/>
      <path class="cls-3" d="M78.02,296.66v4.19h-.86v-4.19h-.53v-.79h.53v-1.8h.86v1.8h.86v.79h-.86Z"/>
      <path class="cls-3" d="M80.13,293.37c.33,0,.61.28.61.61s-.28.61-.61.61-.61-.28-.61-.61.28-.61.61-.61ZM80.57,295.86v4.98h-.86v-4.98h.86Z"/>
      <path class="cls-3" d="M81.89,298.37c0-1.51,1.12-2.63,2.64-2.63s2.64,1.12,2.64,2.63-1.13,2.61-2.64,2.61-2.64-1.1-2.64-2.61ZM82.77,298.37c0,1.22.86,1.85,1.75,1.85s1.75-.64,1.75-1.85-.84-1.86-1.75-1.86-1.75.65-1.75,1.86Z"/>
      <path class="cls-3" d="M88.49,295.86h.86v.58c.16-.2.6-.7,1.43-.7.59,0,1.13.24,1.43.68.25.37.29.78.29,1.33v3.08h-.86v-3.06c0-.3-.02-.65-.23-.91-.17-.22-.43-.36-.82-.36-.3,0-.62.08-.88.38-.34.4-.36.98-.36,1.34v2.6h-.86v-4.98Z"/>
    </g>
  </g>
</svg>