<?xml version="1.0" encoding="utf-8"?>
<!-- Generator: Adobe Illustrator 28.3.0, SVG Export Plug-In . SVG Version: 6.00 Build 0)  -->
<svg version="1.1" id="Layer_1" xmlns="http://www.w3.org/2000/svg" xmlns:xlink="http://www.w3.org/1999/xlink" x="0px" y="0px"
	 viewBox="0 0 40 40" style="enable-background:new 0 0 40 40;" xml:space="preserve">
<style type="text/css">
	.st0{fill:#232221;}
</style>
<path class="st0" d="M20,0C9,0,0,9,0,20v0c0,11,9,20,20,20c11,0,20-9,20-20v0C40,9,31,0,20,0z M10.6,12.2h18.7
	c0.4,0,0.8,0.2,1.1,0.4l-10.5,9l-10.4-9C9.8,12.3,10.2,12.2,10.6,12.2z M9.1,13.6l7.6,6.6l-7.6,6.4V13.6z M29.4,27.8H10.6
	c-0.4,0-0.8-0.2-1.1-0.4l7.7-6.6l2.7,2.4l2.7-2.4l7.7,6.6C30.2,27.7,29.8,27.8,29.4,27.8z M30.9,26.5l-7.6-6.4l7.6-6.6V26.5z"/>
</svg>
