<?xml version="1.0" encoding="utf-8"?>
<!-- Generator: Adobe Illustrator 28.3.0, SVG Export Plug-In . SVG Version: 6.00 Build 0)  -->
<svg version="1.1" id="Layer_1" xmlns="http://www.w3.org/2000/svg" xmlns:xlink="http://www.w3.org/1999/xlink" x="0px" y="0px"
	 viewBox="0 0 40 40" style="enable-background:new 0 0 40 40;" xml:space="preserve">
<style type="text/css">
	.st0{fill:#232221;}
</style>
<path class="st0" d="M20,0C9,0,0,9,0,20v0c0,11,9,20,20,20c11,0,20-9,20-20v0C40,9,31,0,20,0z M15.1,28.9h-4.1V15.5h4.1V28.9z
	 M13,13.8c-1.4,0-2.4-1.1-2.4-2.5c0-1.4,1.1-2.5,2.4-2.5c1.4,0,2.4,1.1,2.4,2.5C15.4,12.7,14.3,13.8,13,13.8z M30.6,28.9h-4.1
	c0,0,0-5.1,0-7c0-1.9-0.7-3-2.3-3c-1.7,0-2.5,1.1-2.5,3c0,2.1,0,7,0,7h-4V15.5h4v1.8c0,0,1.2-2.2,4-2.2c2.8,0,4.9,1.7,4.9,5.3
	C30.6,24,30.6,28.9,30.6,28.9z"/>
</svg>
