<?xml version="1.0" encoding="UTF-8"?>
<svg id="Layer_1" data-name="Layer 1" xmlns="http://www.w3.org/2000/svg" viewBox="0 0 40 40">
  <defs>
    <style>
      .cls-1 {
        fill: #232221;
        stroke-width: 0px;
      }
    </style>
  </defs>
  <path class="cls-1" d="M20,.11C8.99.11.06,9.03.06,20.05s8.93,19.94,19.94,19.94,19.94-8.93,19.94-19.94S31.01.11,20,.11ZM13.96,10.07l4.23,4.23-.85.85-4.23-4.23.85-.85ZM15.06,24.64c-8.98-8.98-2.29-13.21-2.29-13.21l4.1,4.1c-2.75,2.75-.09,5.29.96,6.35,1.05,1.05,3.6,3.71,6.35.96l4.1,4.1s-4.23,6.69-13.21-2.29ZM28.78,26.59l-4.23-4.23.85-.85,4.23,4.23-.85.85Z"/>
</svg>