<?xml version="1.0" encoding="utf-8"?>
<!-- Generator: Adobe Illustrator 28.3.0, SVG Export Plug-In . SVG Version: 6.00 Build 0)  -->
<svg version="1.1" id="Layer_1" xmlns="http://www.w3.org/2000/svg" xmlns:xlink="http://www.w3.org/1999/xlink" x="0px" y="0px"
	 viewBox="0 0 40 40" style="enable-background:new 0 0 40 40;" xml:space="preserve">
<style type="text/css">
	.st0{fill:#232221;}
</style>
<g>
	<path class="st0" d="M28.5,13.5c-0.2-0.5-0.4-0.9-0.8-1.3c-0.4-0.4-0.7-0.6-1.3-0.8c-0.4-0.2-1-0.3-2-0.4C23.3,11,22.9,11,20,11
		c-2.9,0-3.3,0-4.4,0.1c-1.1,0-1.6,0.2-2,0.4c-0.5,0.2-0.9,0.4-1.3,0.8c-0.4,0.4-0.6,0.7-0.8,1.3c-0.2,0.4-0.3,1-0.4,2
		C11,16.7,11,17.1,11,20c0,2.9,0,3.3,0.1,4.4c0,1.1,0.2,1.6,0.4,2c0.2,0.5,0.4,0.9,0.8,1.3c0.4,0.4,0.7,0.6,1.3,0.8
		c0.4,0.2,1,0.3,2,0.4C16.7,29,17.1,29,20,29c2.9,0,3.3,0,4.4-0.1c1.1,0,1.6-0.2,2-0.4c0.5-0.2,0.9-0.4,1.3-0.8
		c0.4-0.4,0.6-0.7,0.8-1.3c0.2-0.4,0.3-1,0.4-2C29,23.3,29,22.9,29,20c0-2.9,0-3.3-0.1-4.4C28.9,14.5,28.7,13.9,28.5,13.5z M20,25.6
		c-3.1,0-5.6-2.5-5.6-5.6c0-3.1,2.5-5.6,5.6-5.6c3.1,0,5.6,2.5,5.6,5.6C25.6,23.1,23.1,25.6,20,25.6z M25.9,15.5
		c-0.7,0-1.3-0.6-1.3-1.3c0-0.7,0.6-1.3,1.3-1.3c0.7,0,1.3,0.6,1.3,1.3C27.2,14.9,26.6,15.5,25.9,15.5z"/>
	<path class="st0" d="M20,16.3c-2,0-3.7,1.6-3.7,3.7c0,2,1.6,3.7,3.7,3.7s3.7-1.6,3.7-3.7C23.7,18,22,16.3,20,16.3z"/>
	<path class="st0" d="M20,0C9,0,0,9,0,20v0c0,11,9,20,20,20c11,0,20-9,20-20v0C40,9,31,0,20,0z M30.9,24.5c-0.1,1.2-0.2,2-0.5,2.7
		c-0.3,0.7-0.7,1.3-1.3,1.9c-0.6,0.6-1.2,1-1.9,1.3c-0.7,0.3-1.5,0.5-2.7,0.5C23.4,31,23,31,20,31c-3,0-3.4,0-4.5-0.1
		c-1.2-0.1-2-0.2-2.7-0.5c-0.7-0.3-1.3-0.7-1.9-1.3c-0.6-0.6-1-1.2-1.3-1.9c-0.3-0.7-0.5-1.5-0.5-2.7C9,23.4,9,23,9,20
		c0-3,0-3.4,0.1-4.5c0.1-1.2,0.2-2,0.5-2.7c0.3-0.7,0.7-1.3,1.3-1.9c0.6-0.6,1.2-1,1.9-1.3c0.7-0.3,1.5-0.5,2.7-0.5
		C16.6,9,17,9,20,9c3,0,3.4,0,4.5,0.1c1.2,0.1,2,0.2,2.7,0.5c0.7,0.3,1.3,0.7,1.9,1.3c0.6,0.6,1,1.2,1.3,1.9
		c0.3,0.7,0.5,1.5,0.5,2.7C31,16.6,31,17,31,20C31,23,31,23.4,30.9,24.5z"/>
</g>
</svg>
