<?xml version="1.0" encoding="UTF-8"?>
<svg id="Layer_1" data-name="Layer 1" xmlns="http://www.w3.org/2000/svg" xmlns:xlink="http://www.w3.org/1999/xlink" viewBox="0 0 600 352.8">
  <defs>
    <style>
      .cls-1 {
        fill: #335843;
      }

      .cls-1, .cls-2, .cls-3 {
        stroke-width: 0px;
      }

      .cls-4 {
        clip-path: url(#clippath);
      }

      .cls-2, .cls-5, .cls-6, .cls-7 {
        fill: none;
      }

      .cls-5 {
        stroke: #ccc;
      }

      .cls-5, .cls-6, .cls-7 {
        stroke-miterlimit: 10;
      }

      .cls-8 {
        clip-path: url(#clippath-1);
      }

      .cls-9 {
        clip-path: url(#clippath-4);
      }

      .cls-10 {
        clip-path: url(#clippath-3);
      }

      .cls-11 {
        clip-path: url(#clippath-2);
      }

      .cls-12 {
        clip-path: url(#clippath-7);
      }

      .cls-13 {
        clip-path: url(#clippath-8);
      }

      .cls-14 {
        clip-path: url(#clippath-6);
      }

      .cls-15 {
        clip-path: url(#clippath-5);
      }

      .cls-16 {
        clip-path: url(#clippath-9);
      }

      .cls-6 {
        stroke: #333;
      }

      .cls-3 {
        fill: #000;
      }

      .cls-17 {
        clip-path: url(#clippath-14);
      }

      .cls-18 {
        clip-path: url(#clippath-13);
      }

      .cls-19 {
        clip-path: url(#clippath-12);
      }

      .cls-20 {
        clip-path: url(#clippath-10);
      }

      .cls-21 {
        clip-path: url(#clippath-15);
      }

      .cls-22 {
        clip-path: url(#clippath-17);
      }

      .cls-23 {
        clip-path: url(#clippath-16);
      }

      .cls-24 {
        clip-path: url(#clippath-19);
      }

      .cls-25 {
        clip-path: url(#clippath-11);
      }

      .cls-26 {
        clip-path: url(#clippath-18);
      }

      .cls-7 {
        stroke: rgba(0, 0, 0, 0);
        stroke-width: 2px;
      }
    </style>
    <clipPath id="clippath">
      <rect class="cls-2" x="110.37" y=".05" width="479.4" height="334.49"/>
    </clipPath>
    <clipPath id="clippath-1">
      <rect class="cls-2" x="110.37" y=".05" width="479.4" height="334.49"/>
    </clipPath>
    <clipPath id="clippath-2">
      <rect class="cls-2" x="110.37" y=".05" width="479.4" height="334.49"/>
    </clipPath>
    <clipPath id="clippath-3">
      <rect class="cls-2" x="110.37" y=".05" width="479.4" height="334.49"/>
    </clipPath>
    <clipPath id="clippath-4">
      <rect class="cls-2" x="110.37" y=".05" width="479.4" height="334.49"/>
    </clipPath>
    <clipPath id="clippath-5">
      <rect class="cls-2" x="110.37" y=".05" width="479.4" height="334.49"/>
    </clipPath>
    <clipPath id="clippath-6">
      <rect class="cls-2" x="110.37" y=".05" width="479.4" height="334.49"/>
    </clipPath>
    <clipPath id="clippath-7">
      <rect class="cls-2" x="110.37" y=".05" width="479.4" height="334.49"/>
    </clipPath>
    <clipPath id="clippath-8">
      <rect class="cls-2" x="110.37" y=".05" width="479.4" height="334.49"/>
    </clipPath>
    <clipPath id="clippath-9">
      <rect class="cls-2" x="110.37" y=".05" width="479.4" height="334.49"/>
    </clipPath>
    <clipPath id="clippath-10">
      <rect class="cls-2" x="110.37" y=".05" width="479.4" height="334.49"/>
    </clipPath>
    <clipPath id="clippath-11">
      <rect class="cls-2" x="110.37" y=".05" width="479.4" height="334.49"/>
    </clipPath>
    <clipPath id="clippath-12">
      <rect class="cls-2" x="110.37" y=".05" width="479.4" height="334.49"/>
    </clipPath>
    <clipPath id="clippath-13">
      <rect class="cls-2" x="110.37" y=".05" width="479.4" height="334.49"/>
    </clipPath>
    <clipPath id="clippath-14">
      <rect class="cls-2" x="110.37" y=".05" width="479.4" height="334.49"/>
    </clipPath>
    <clipPath id="clippath-15">
      <rect class="cls-2" x="110.37" y=".05" width="479.4" height="334.49"/>
    </clipPath>
    <clipPath id="clippath-16">
      <rect class="cls-2" x="110.37" y=".05" width="479.4" height="334.49"/>
    </clipPath>
    <clipPath id="clippath-17">
      <rect class="cls-2" x="110.37" y=".05" width="479.4" height="334.49"/>
    </clipPath>
    <clipPath id="clippath-18">
      <rect class="cls-2" x="110.37" y=".05" width="479.4" height="334.49"/>
    </clipPath>
    <clipPath id="clippath-19">
      <rect class="cls-2" x="110.37" y=".05" width="479.4" height="334.49"/>
    </clipPath>
  </defs>
  <path class="cls-6" d="M110.32,0v334.59"/>
  <path class="cls-5" d="M230.73,0v334.59"/>
  <path class="cls-5" d="M350.07,0v334.59"/>
  <path class="cls-5" d="M469.42,0v334.59"/>
  <path class="cls-5" d="M589.83,0v334.59"/>
  <g class="cls-4">
    <path class="cls-7" d="M110.85,32.5V11.19h387.87c1.18,0,2.13.95,2.13,2.13v17.05c0,1.18-.95,2.13-2.13,2.13H110.85Z"/>
  </g>
  <g class="cls-8">
    <path class="cls-1" d="M110.85,32.5V11.19h387.87c1.18,0,2.13.95,2.13,2.13v17.05c0,1.18-.95,2.13-2.13,2.13H110.85Z"/>
  </g>
  <g class="cls-11">
    <path class="cls-7" d="M110.85,64.47v-21.31h359.1c1.18,0,2.13.95,2.13,2.13v17.05c0,1.18-.95,2.13-2.13,2.13H110.85Z"/>
  </g>
  <g class="cls-10">
    <path class="cls-1" d="M110.85,64.47v-21.31h359.1c1.18,0,2.13.95,2.13,2.13v17.05c0,1.18-.95,2.13-2.13,2.13H110.85Z"/>
  </g>
  <g class="cls-9">
    <path class="cls-7" d="M110.85,97.5v-21.31h335.66c1.18,0,2.13.95,2.13,2.13v17.05c0,1.18-.95,2.13-2.13,2.13H110.85Z"/>
  </g>
  <g class="cls-15">
    <path class="cls-1" d="M110.85,97.5v-21.31h335.66c1.18,0,2.13.95,2.13,2.13v17.05c0,1.18-.95,2.13-2.13,2.13H110.85Z"/>
  </g>
  <g class="cls-14">
    <path class="cls-7" d="M110.85,129.47v-21.31h246.15c1.18,0,2.13.95,2.13,2.13v17.05c0,1.18-.95,2.13-2.13,2.13H110.85Z"/>
  </g>
  <g class="cls-12">
    <path class="cls-1" d="M110.85,129.47v-21.31h246.15c1.18,0,2.13.95,2.13,2.13v17.05c0,1.18-.95,2.13-2.13,2.13H110.85Z"/>
  </g>
  <g class="cls-13">
    <path class="cls-7" d="M110.85,161.44v-21.31h191.8c1.18,0,2.13.95,2.13,2.13v17.05c0,1.18-.95,2.13-2.13,2.13H110.85Z"/>
  </g>
  <g class="cls-16">
    <path class="cls-1" d="M110.85,161.44v-21.31h191.8c1.18,0,2.13.95,2.13,2.13v17.05c0,1.18-.95,2.13-2.13,2.13H110.85Z"/>
  </g>
  <g class="cls-20">
    <path class="cls-7" d="M110.85,194.47v-21.31h71.39c1.18,0,2.13.95,2.13,2.13v17.05c0,1.18-.95,2.13-2.13,2.13h-71.39Z"/>
  </g>
  <g class="cls-25">
    <path class="cls-1" d="M110.85,194.47v-21.31h71.39c1.18,0,2.13.95,2.13,2.13v17.05c0,1.18-.95,2.13-2.13,2.13h-71.39Z"/>
  </g>
  <g class="cls-19">
    <path class="cls-7" d="M110.85,226.44v-21.31h67.13c1.18,0,2.13.95,2.13,2.13v17.05c0,1.18-.95,2.13-2.13,2.13h-67.13Z"/>
  </g>
  <g class="cls-18">
    <path class="cls-1" d="M110.85,226.44v-21.31h67.13c1.18,0,2.13.95,2.13,2.13v17.05c0,1.18-.95,2.13-2.13,2.13h-67.13Z"/>
  </g>
  <g class="cls-17">
    <path class="cls-7" d="M110.85,258.4v-21.31h65c1.18,0,2.13.95,2.13,2.13v17.05c0,1.18-.95,2.13-2.13,2.13h-65Z"/>
  </g>
  <g class="cls-21">
    <path class="cls-1" d="M110.85,258.4v-21.31h65c1.18,0,2.13.95,2.13,2.13v17.05c0,1.18-.95,2.13-2.13,2.13h-65Z"/>
  </g>
  <g class="cls-23">
    <path class="cls-7" d="M110.85,291.44v-21.31h55.41c1.18,0,2.13.95,2.13,2.13v17.05c0,1.18-.95,2.13-2.13,2.13h-55.41Z"/>
  </g>
  <g class="cls-22">
    <path class="cls-1" d="M110.85,291.44v-21.31h55.41c1.18,0,2.13.95,2.13,2.13v17.05c0,1.18-.95,2.13-2.13,2.13h-55.41Z"/>
  </g>
  <g class="cls-26">
    <path class="cls-7" d="M110.85,323.4v-21.31h17.05c1.18,0,2.13.95,2.13,2.13v17.05c0,1.18-.95,2.13-2.13,2.13h-17.05Z"/>
  </g>
  <g class="cls-24">
    <path class="cls-1" d="M110.85,323.4v-21.31h17.05c1.18,0,2.13.95,2.13,2.13v17.05c0,1.18-.95,2.13-2.13,2.13h-17.05Z"/>
  </g>
  <path class="cls-3" d="M107.18,348.14c0-1.09.11-1.96.33-2.61.22-.67.55-1.18.98-1.53.44-.36,1-.53,1.66-.53.49,0,.92.1,1.28.3.38.2.69.49.93.87.24.37.43.82.57,1.35.13.53.2,1.25.2,2.16,0,1.08-.11,1.94-.33,2.6-.21.65-.54,1.17-.98,1.53-.43.36-.99.53-1.66.53-.88,0-1.57-.32-2.08-.95-.6-.75-.9-1.99-.9-3.71ZM108.32,348.14c0,1.5.18,2.5.53,3,.36.5.79.75,1.3.75.52,0,.95-.25,1.3-.75.36-.5.53-1.5.53-3s-.18-2.51-.53-3c-.34-.5-.78-.75-1.32-.75-.51,0-.92.22-1.23.65-.39.56-.58,1.59-.58,3.1Z"/>
  <path class="cls-3" d="M223.3,350.26l1.18-.1c.09.58.29,1.01.6,1.3.32.29.71.43,1.17.43.53,0,.99-.21,1.37-.62.38-.41.57-.95.57-1.62,0-.64-.18-1.15-.55-1.52-.36-.38-.83-.57-1.42-.57-.36,0-.68.08-.98.25-.29.17-.52.38-.68.63l-1.05-.13.88-4.7h4.56v1.07h-3.66l-.48,2.46c.54-.39,1.12-.58,1.71-.58.8,0,1.47.28,2.01.83.55.56.83,1.27.83,2.15,0,.82-.24,1.54-.72,2.15-.59.73-1.39,1.1-2.4,1.1-.83,0-1.52-.23-2.05-.7-.52-.47-.82-1.08-.9-1.85ZM230.76,348.14c0-1.09.11-1.96.33-2.61.22-.67.55-1.18.98-1.53.44-.36,1-.53,1.66-.53.49,0,.92.1,1.28.3.38.2.69.49.93.87.24.37.43.82.57,1.35.13.53.2,1.25.2,2.16,0,1.08-.11,1.94-.33,2.6-.21.65-.54,1.17-.98,1.53-.43.36-.99.53-1.66.53-.88,0-1.57-.32-2.08-.95-.6-.75-.9-1.99-.9-3.71ZM231.9,348.14c0,1.5.18,2.5.53,3,.36.5.79.75,1.3.75.52,0,.95-.25,1.3-.75.36-.5.53-1.5.53-3,0-1.51-.18-2.51-.53-3-.34-.5-.78-.75-1.32-.75-.51,0-.92.22-1.23.65-.39.56-.58,1.59-.58,3.1Z"/>
  <path class="cls-3" d="M343.65,352.65h-1.12v-7.16c-.28.26-.64.52-1.08.78-.43.26-.82.44-1.17.57v-1.08c.62-.3,1.17-.65,1.63-1.07.48-.42.82-.83,1.02-1.23h.72v9.19ZM346.88,348.14c0-1.09.11-1.96.33-2.61.22-.67.55-1.18.98-1.53.44-.36,1-.53,1.66-.53.49,0,.92.1,1.28.3.38.2.69.49.93.87.24.37.43.82.57,1.35.13.53.2,1.25.2,2.16,0,1.08-.11,1.94-.33,2.6-.21.65-.54,1.17-.98,1.53-.43.36-.99.53-1.66.53-.88,0-1.57-.32-2.08-.95-.6-.75-.9-1.99-.9-3.71ZM348.03,348.14c0,1.5.18,2.5.53,3,.36.5.79.75,1.3.75.52,0,.95-.25,1.3-.75.36-.5.53-1.5.53-3s-.18-2.51-.53-3c-.34-.5-.78-.75-1.32-.75-.51,0-.92.22-1.23.65-.39.56-.58,1.59-.58,3.1ZM354.34,348.14c0-1.09.11-1.96.33-2.61.22-.67.55-1.18.98-1.53.44-.36,1-.53,1.66-.53.49,0,.92.1,1.28.3.38.2.69.49.93.87.24.37.43.82.57,1.35.13.53.2,1.25.2,2.16,0,1.08-.11,1.94-.33,2.6-.21.65-.54,1.17-.98,1.53-.43.36-.99.53-1.66.53-.88,0-1.57-.32-2.08-.95-.6-.75-.9-1.99-.9-3.71ZM355.49,348.14c0,1.5.18,2.5.53,3,.36.5.79.75,1.3.75.52,0,.95-.25,1.3-.75.36-.5.53-1.5.53-3s-.18-2.51-.53-3c-.34-.5-.78-.75-1.32-.75-.51,0-.92.22-1.23.65-.39.56-.58,1.59-.58,3.1Z"/>
  <path class="cls-3" d="M463.5,352.65h-1.12v-7.16c-.28.26-.64.52-1.08.78-.43.26-.82.44-1.17.57v-1.08c.62-.3,1.17-.65,1.63-1.07.48-.42.82-.83,1.02-1.23h.72v9.19ZM466.73,350.26l1.18-.1c.09.58.29,1.01.6,1.3.32.29.71.43,1.17.43.53,0,.99-.21,1.37-.62.38-.41.57-.95.57-1.62s-.18-1.15-.55-1.52c-.36-.38-.83-.57-1.42-.57-.36,0-.68.08-.98.25-.29.17-.52.38-.68.63l-1.05-.13.88-4.7h4.56v1.07h-3.66l-.48,2.46c.54-.39,1.12-.58,1.71-.58.8,0,1.47.28,2.01.83.56.56.83,1.27.83,2.15,0,.82-.24,1.54-.72,2.15-.59.73-1.39,1.1-2.4,1.1-.83,0-1.52-.23-2.05-.7-.52-.47-.82-1.08-.9-1.85ZM474.19,348.14c0-1.09.11-1.96.33-2.61.22-.67.55-1.18.98-1.53.44-.36,1-.53,1.66-.53.49,0,.92.1,1.28.3.38.2.69.49.93.87.24.37.43.82.57,1.35.13.53.2,1.25.2,2.16,0,1.08-.11,1.94-.33,2.6-.21.65-.54,1.17-.98,1.53-.43.36-.99.53-1.66.53-.88,0-1.57-.32-2.08-.95-.6-.75-.9-1.99-.9-3.71ZM475.34,348.14c0,1.5.18,2.5.53,3,.36.5.79.75,1.3.75.52,0,.95-.25,1.3-.75.36-.5.53-1.5.53-3s-.18-2.51-.53-3c-.34-.5-.78-.75-1.32-.75-.51,0-.92.22-1.23.65-.39.56-.58,1.59-.58,3.1Z"/>
  <path class="cls-3" d="M585.03,351.57v1.08h-6.06c0-.27.04-.53.13-.78.16-.41.4-.82.73-1.22.34-.4.84-.86,1.48-1.38,1-.82,1.67-1.47,2.01-1.95.36-.48.53-.93.53-1.35,0-.44-.16-.82-.48-1.12-.32-.31-.74-.47-1.25-.47-.54,0-.98.16-1.3.48-.32.32-.49.77-.5,1.35l-1.15-.12c.08-.87.37-1.52.88-1.96.52-.46,1.22-.68,2.1-.68s1.57.24,2.08.73c.51.49.77,1.09.77,1.81,0,.37-.08.73-.23,1.08-.14.34-.39.72-.75,1.12-.34.39-.92.92-1.71,1.6-.68.57-1.12.95-1.32,1.17-.19.2-.34.4-.47.6h4.5ZM586.58,348.14c0-1.09.11-1.96.33-2.61.22-.67.55-1.18.98-1.53.44-.36,1-.53,1.66-.53.49,0,.92.1,1.28.3.38.2.69.49.93.87.24.37.43.82.57,1.35.13.53.2,1.25.2,2.16,0,1.08-.11,1.94-.33,2.6-.21.65-.54,1.17-.98,1.53-.43.36-.99.53-1.66.53-.88,0-1.57-.32-2.08-.95-.6-.75-.9-1.99-.9-3.71ZM587.73,348.14c0,1.5.18,2.5.53,3,.36.5.79.75,1.3.75.52,0,.95-.25,1.3-.75.36-.5.53-1.5.53-3s-.18-2.51-.53-3c-.34-.5-.78-.75-1.32-.75-.51,0-.92.22-1.23.65-.39.56-.58,1.59-.58,3.1ZM594.04,348.14c0-1.09.11-1.96.33-2.61.22-.67.55-1.18.98-1.53.44-.36,1-.53,1.66-.53.49,0,.92.1,1.28.3.38.2.69.49.93.87.24.37.43.82.57,1.35.13.53.2,1.25.2,2.16,0,1.08-.11,1.94-.33,2.6-.21.65-.54,1.17-.98,1.53-.43.36-.99.53-1.66.53-.88,0-1.57-.32-2.08-.95-.6-.75-.9-1.99-.9-3.71ZM595.19,348.14c0,1.5.18,2.5.53,3,.36.5.79.75,1.3.75.52,0,.95-.25,1.3-.75.36-.5.53-1.5.53-3s-.18-2.51-.53-3c-.34-.5-.78-.75-1.32-.75-.51,0-.92.22-1.23.65-.39.56-.58,1.59-.58,3.1Z"/>
  <g>
    <path class="cls-3" d="M37.37,19.59h4.37v-3.46h.95v8.52h-.95v-4.17h-4.37v4.17h-.95v-8.52h.95v3.46Z"/>
    <path class="cls-3" d="M49.36,23.29c-.15.29-.38.61-.65.86-.49.43-1.09.65-1.76.65-1.28,0-2.62-.81-2.62-2.77,0-1.58.97-2.81,2.57-2.81,1.03,0,1.69.51,2.01.97.33.47.52,1.29.5,1.99h-4.13c.01,1.1.77,1.8,1.69,1.8.43,0,.78-.13,1.09-.38.24-.2.43-.47.55-.73l.77.42ZM48.46,21.42c-.15-.83-.78-1.38-1.56-1.38s-1.42.59-1.56,1.38h3.12Z"/>
    <path class="cls-3" d="M50.81,19.35h.92v.57c.09-.14.49-.7,1.2-.7.28,0,.59.1.82.22l-.43.83c-.2-.14-.4-.18-.54-.18-.37,0-.6.15-.74.33-.15.2-.31.56-.31,1.43v2.8h-.92v-5.3Z"/>
    <path class="cls-3" d="M55.52,24.65h-.92v-9.32h.92v4.75c.63-.78,1.43-.87,1.81-.87,1.66,0,2.58,1.38,2.58,2.81s-.93,2.77-2.54,2.77c-.86,0-1.46-.38-1.85-.89v.74ZM58.97,22.03c0-1.3-.88-1.99-1.74-1.99s-1.76.7-1.76,1.98c0,1.09.69,1.97,1.78,1.97s1.73-.89,1.73-1.96Z"/>
    <path class="cls-3" d="M68.93,20.37h3.55v.2c0,.95-.28,1.97-.82,2.7-.26.34-1.21,1.53-3.17,1.53-2.53,0-4.42-1.93-4.42-4.41s1.9-4.41,4.45-4.41c.82,0,1.78.2,2.61.84.38.29.74.68.98,1.01l-.7.64c-.24-.34-.52-.65-.8-.88-.41-.33-1.05-.72-2.07-.72-2.06,0-3.49,1.55-3.49,3.53,0,2.33,1.85,3.5,3.46,3.5,1.14,0,2.12-.57,2.61-1.43.15-.27.32-.68.34-1.21h-2.53v-.89Z"/>
    <path class="cls-3" d="M78.06,19.35h.92v5.3h-.92v-.74c-.31.4-.88.89-1.81.89-1.34,0-2.58-.95-2.58-2.81s1.23-2.77,2.58-2.77c1.02,0,1.57.56,1.81.88v-.75ZM74.61,21.99c0,1.14.64,1.99,1.74,1.99s1.76-.93,1.76-1.98c0-1.37-.95-1.97-1.76-1.97-.91,0-1.74.66-1.74,1.96Z"/>
    <path class="cls-3" d="M80.72,19.35h.92v.57c.09-.14.49-.7,1.2-.7.28,0,.59.1.82.22l-.43.83c-.2-.14-.4-.18-.54-.18-.37,0-.6.15-.74.33-.15.2-.31.56-.31,1.43v2.8h-.92v-5.3Z"/>
    <path class="cls-3" d="M88.26,15.33h.92v9.32h-.92v-.74c-.31.4-.88.89-1.81.89-1.34,0-2.58-.95-2.58-2.81s1.23-2.77,2.58-2.77c1.02,0,1.57.56,1.81.88v-4.77ZM84.81,21.99c0,1.14.64,1.99,1.74,1.99s1.76-.93,1.76-1.98c0-1.37-.95-1.97-1.76-1.97-.91,0-1.74.66-1.74,1.96Z"/>
    <path class="cls-3" d="M95.63,23.29c-.15.29-.38.61-.65.86-.49.43-1.09.65-1.76.65-1.28,0-2.62-.81-2.62-2.77,0-1.58.97-2.81,2.57-2.81,1.03,0,1.69.51,2.01.97.33.47.52,1.29.5,1.99h-4.13c.01,1.1.77,1.8,1.69,1.8.43,0,.78-.13,1.09-.38.24-.2.43-.47.55-.73l.77.42ZM94.72,21.42c-.15-.83-.78-1.38-1.56-1.38s-1.42.59-1.56,1.38h3.12Z"/>
    <path class="cls-3" d="M97.08,19.35h.92v.61c.17-.22.64-.74,1.52-.74.63,0,1.2.26,1.52.73.27.4.31.83.31,1.42v3.28h-.92v-3.26c0-.32-.03-.69-.24-.97-.18-.23-.46-.38-.87-.38-.32,0-.66.09-.93.41-.36.42-.38,1.05-.38,1.43v2.77h-.92v-5.3Z"/>
  </g>
  <g>
    <path class="cls-3" d="M29.3,48.23c.57,0,1.43.04,2.07.47.5.33.93.98.93,1.89,0,1.3-.86,2.26-2.15,2.35l2.71,3.81h-1.15l-2.59-3.73h-.24v3.73h-.95v-8.52h1.37ZM28.87,52.18h.6c1.18,0,1.88-.56,1.88-1.56,0-.47-.14-.95-.68-1.25-.38-.22-.82-.24-1.23-.24h-.57v3.05Z"/>
    <path class="cls-3" d="M38.05,51.45h.92v5.3h-.92v-.74c-.31.4-.88.89-1.81.89-1.34,0-2.58-.95-2.58-2.81s1.23-2.77,2.58-2.77c1.02,0,1.57.56,1.81.88v-.75ZM34.6,54.09c0,1.14.64,1.99,1.74,1.99s1.76-.93,1.76-1.98c0-1.37-.95-1.97-1.76-1.97-.91,0-1.74.66-1.74,1.96Z"/>
    <path class="cls-3" d="M41.17,48.79c.36,0,.65.29.65.65s-.29.65-.65.65-.65-.29-.65-.65.29-.65.65-.65ZM41.63,51.45v5.3h-.92v-5.3h.92Z"/>
    <path class="cls-3" d="M45.56,52.68c-.13-.31-.4-.54-.74-.54s-.64.19-.64.6c0,.38.26.5.86.75.77.32,1.12.56,1.33.82.23.28.28.56.28.86,0,1.11-.8,1.74-1.83,1.74-.22,0-1.41-.03-1.85-1.35l.79-.33c.1.28.41.87,1.07.87.6,0,.87-.45.87-.84,0-.5-.36-.66-.86-.88-.64-.28-1.05-.49-1.29-.78-.2-.26-.24-.51-.24-.78,0-.93.65-1.48,1.55-1.48.28,0,1.03.05,1.46.96l-.75.4Z"/>
    <path class="cls-3" d="M52.58,55.4c-.15.29-.38.61-.65.86-.49.43-1.09.65-1.76.65-1.28,0-2.62-.81-2.62-2.77,0-1.58.97-2.81,2.57-2.81,1.03,0,1.69.51,2.01.97.33.47.52,1.29.5,1.99h-4.13c.01,1.1.77,1.8,1.69,1.8.43,0,.78-.13,1.09-.38.24-.2.43-.47.55-.73l.77.42ZM51.67,53.52c-.15-.83-.78-1.38-1.56-1.38s-1.42.59-1.56,1.38h3.12Z"/>
    <path class="cls-3" d="M58.09,47.44h.92v9.32h-.92v-.74c-.31.4-.88.89-1.81.89-1.34,0-2.58-.95-2.58-2.81s1.23-2.77,2.58-2.77c1.02,0,1.57.56,1.81.88v-4.77ZM54.64,54.09c0,1.14.64,1.99,1.74,1.99s1.76-.93,1.76-1.98c0-1.37-.95-1.97-1.76-1.97-.91,0-1.74.66-1.74,1.96Z"/>
    <path class="cls-3" d="M68.36,52.47h3.55v.2c0,.95-.28,1.97-.82,2.7-.26.34-1.21,1.53-3.17,1.53-2.53,0-4.42-1.93-4.42-4.41s1.9-4.41,4.45-4.41c.82,0,1.78.2,2.61.84.38.29.74.68.98,1.01l-.7.64c-.24-.34-.52-.65-.8-.88-.41-.33-1.05-.72-2.07-.72-2.06,0-3.49,1.55-3.49,3.53,0,2.33,1.85,3.5,3.46,3.5,1.14,0,2.12-.57,2.61-1.43.15-.27.32-.68.34-1.21h-2.53v-.89Z"/>
    <path class="cls-3" d="M77.49,51.45h.92v5.3h-.92v-.74c-.31.4-.88.89-1.81.89-1.34,0-2.58-.95-2.58-2.81s1.23-2.77,2.58-2.77c1.02,0,1.57.56,1.81.88v-.75ZM74.04,54.09c0,1.14.64,1.99,1.74,1.99s1.76-.93,1.76-1.98c0-1.37-.95-1.97-1.76-1.97-.91,0-1.74.66-1.74,1.96Z"/>
    <path class="cls-3" d="M80.15,51.45h.92v.57c.09-.14.49-.7,1.2-.7.28,0,.59.1.82.22l-.43.83c-.2-.14-.4-.18-.54-.18-.37,0-.6.15-.74.33-.15.2-.31.56-.31,1.43v2.8h-.92v-5.3Z"/>
    <path class="cls-3" d="M87.69,47.44h.92v9.32h-.92v-.74c-.31.4-.88.89-1.81.89-1.34,0-2.58-.95-2.58-2.81s1.23-2.77,2.58-2.77c1.02,0,1.57.56,1.81.88v-4.77ZM84.24,54.09c0,1.14.64,1.99,1.74,1.99s1.76-.93,1.76-1.98c0-1.37-.95-1.97-1.76-1.97-.91,0-1.74.66-1.74,1.96Z"/>
    <path class="cls-3" d="M95.06,55.4c-.15.29-.38.61-.65.86-.49.43-1.09.65-1.76.65-1.28,0-2.62-.81-2.62-2.77,0-1.58.97-2.81,2.57-2.81,1.03,0,1.69.51,2.01.97.33.47.52,1.29.5,1.99h-4.13c.01,1.1.77,1.8,1.69,1.8.43,0,.78-.13,1.09-.38.24-.2.43-.47.55-.73l.77.42ZM94.15,53.52c-.15-.83-.78-1.38-1.56-1.38s-1.42.59-1.56,1.38h3.12Z"/>
    <path class="cls-3" d="M96.5,51.45h.92v.61c.17-.22.64-.74,1.52-.74.63,0,1.2.26,1.52.73.27.4.31.83.31,1.42v3.28h-.92v-3.26c0-.32-.03-.69-.24-.97-.18-.23-.46-.38-.87-.38-.32,0-.66.09-.93.41-.36.42-.38,1.05-.38,1.43v2.77h-.92v-5.3Z"/>
  </g>
  <g>
    <path class="cls-3" d="M37.37,82.92h4.37v-3.46h.95v8.52h-.95v-4.17h-4.37v4.17h-.95v-8.52h.95v3.46Z"/>
    <path class="cls-3" d="M44.33,85.35c0-1.61,1.19-2.8,2.81-2.8s2.81,1.19,2.81,2.8-1.2,2.79-2.81,2.79-2.81-1.18-2.81-2.79ZM45.27,85.35c0,1.3.92,1.97,1.87,1.97s1.87-.68,1.87-1.97-.89-1.98-1.87-1.98-1.87.69-1.87,1.98Z"/>
    <path class="cls-3" d="M52.28,85.77c0,.37,0,.8.26,1.14.14.18.42.41.93.41s.79-.23.93-.41c.26-.33.26-.77.26-1.14v-3.09h.92v3.19c0,.65-.06,1.14-.49,1.6-.47.5-1.1.66-1.62.66s-1.15-.17-1.62-.66c-.42-.46-.49-.95-.49-1.6v-3.19h.92v3.09Z"/>
    <path class="cls-3" d="M59.51,83.91c-.13-.31-.4-.54-.74-.54s-.64.19-.64.6c0,.38.26.5.86.75.77.32,1.12.56,1.33.82.23.28.28.56.28.86,0,1.11-.8,1.74-1.83,1.74-.22,0-1.41-.03-1.85-1.35l.79-.33c.1.28.41.87,1.07.87.6,0,.87-.45.87-.84,0-.5-.36-.66-.86-.88-.64-.28-1.05-.49-1.29-.78-.2-.26-.24-.51-.24-.78,0-.93.65-1.48,1.55-1.48.28,0,1.03.05,1.46.96l-.75.4Z"/>
    <path class="cls-3" d="M66.52,86.63c-.15.29-.38.61-.65.86-.49.43-1.09.65-1.76.65-1.28,0-2.62-.81-2.62-2.77,0-1.58.97-2.81,2.57-2.81,1.03,0,1.69.51,2.01.97.33.47.52,1.29.5,1.99h-4.13c.01,1.1.77,1.8,1.69,1.8.43,0,.78-.13,1.09-.38.24-.2.43-.47.55-.73l.77.42ZM65.62,84.75c-.15-.83-.78-1.38-1.56-1.38s-1.42.59-1.56,1.38h3.12Z"/>
    <path class="cls-3" d="M68.89,90.92h-.92v-8.24h.92v.74c.63-.78,1.43-.87,1.81-.87,1.66,0,2.58,1.38,2.58,2.81s-.93,2.77-2.54,2.77c-.86,0-1.46-.38-1.85-.89v3.68ZM72.34,85.37c0-1.3-.88-1.99-1.74-1.99s-1.76.7-1.76,1.98c0,1.09.69,1.97,1.78,1.97s1.73-.89,1.73-1.96Z"/>
    <path class="cls-3" d="M75.62,78.67v9.32h-.92v-9.32h.92Z"/>
    <path class="cls-3" d="M81.42,82.68h.92v5.3h-.92v-.74c-.31.4-.88.89-1.81.89-1.34,0-2.58-.95-2.58-2.81s1.23-2.77,2.58-2.77c1.02,0,1.57.56,1.81.88v-.75ZM77.97,85.33c0,1.14.64,1.99,1.74,1.99s1.76-.93,1.76-1.98c0-1.37-.95-1.97-1.76-1.97-.91,0-1.74.66-1.74,1.96Z"/>
    <path class="cls-3" d="M84.08,82.68h.92v.61c.17-.22.64-.74,1.52-.74.63,0,1.2.26,1.52.73.27.4.31.83.31,1.42v3.28h-.92v-3.26c0-.32-.03-.69-.24-.97-.18-.23-.46-.38-.87-.38-.32,0-.66.09-.93.41-.36.42-.38,1.05-.38,1.43v2.77h-.92v-5.3Z"/>
    <path class="cls-3" d="M91.04,83.53v4.46h-.92v-4.46h-.56v-.84h.56v-1.92h.92v1.92h.92v.84h-.92Z"/>
    <path class="cls-3" d="M95.01,83.91c-.13-.31-.4-.54-.74-.54s-.64.19-.64.6c0,.38.26.5.86.75.77.32,1.12.56,1.33.82.23.28.28.56.28.86,0,1.11-.8,1.74-1.83,1.74-.22,0-1.41-.03-1.85-1.35l.79-.33c.1.28.41.87,1.07.87.6,0,.87-.45.87-.84,0-.5-.36-.66-.86-.88-.64-.28-1.05-.49-1.29-.78-.2-.26-.24-.51-.24-.78,0-.93.65-1.48,1.55-1.48.28,0,1.03.05,1.46.96l-.75.4Z"/>
  </g>
  <g>
    <path class="cls-3" d="M31.91,112.46h-2.94v2.52h2.84v.89h-2.84v4.22h-.95v-8.52h3.89v.89Z"/>
    <path class="cls-3" d="M34.27,110.77v9.32h-.92v-9.32h.92Z"/>
    <path class="cls-3" d="M35.67,117.46c0-1.61,1.19-2.8,2.81-2.8s2.81,1.19,2.81,2.8-1.2,2.79-2.81,2.79-2.81-1.18-2.81-2.79ZM36.62,117.46c0,1.3.92,1.97,1.87,1.97s1.87-.68,1.87-1.97-.89-1.98-1.87-1.98-1.87.69-1.87,1.98Z"/>
    <path class="cls-3" d="M42.96,114.78l1.57,3.6,1.66-4.01,1.65,4.01,1.58-3.6h1.02l-2.63,5.67-1.64-3.96-1.64,3.96-2.61-5.67h1.02Z"/>
    <path class="cls-3" d="M56.13,118.73c-.15.29-.38.61-.65.86-.49.43-1.09.65-1.76.65-1.28,0-2.62-.81-2.62-2.77,0-1.58.97-2.81,2.57-2.81,1.03,0,1.69.51,2.01.97.33.47.52,1.29.5,1.99h-4.13c.01,1.1.77,1.8,1.69,1.8.43,0,.78-.13,1.09-.38.24-.2.43-.47.55-.73l.77.42ZM55.22,116.86c-.15-.83-.78-1.38-1.56-1.38s-1.42.59-1.56,1.38h3.12Z"/>
    <path class="cls-3" d="M57.58,114.78h.92v.57c.09-.14.49-.7,1.2-.7.28,0,.59.1.82.22l-.43.83c-.2-.14-.4-.18-.54-.18-.37,0-.6.15-.74.33-.15.2-.31.56-.31,1.43v2.8h-.92v-5.3Z"/>
    <path class="cls-3" d="M68.97,115.81h3.55v.2c0,.95-.28,1.97-.82,2.7-.26.34-1.21,1.53-3.17,1.53-2.53,0-4.42-1.93-4.42-4.41s1.9-4.41,4.45-4.41c.82,0,1.78.2,2.61.84.38.29.74.68.98,1.01l-.7.64c-.24-.34-.52-.65-.8-.88-.41-.33-1.05-.72-2.07-.72-2.06,0-3.49,1.55-3.49,3.53,0,2.33,1.85,3.5,3.46,3.5,1.14,0,2.12-.57,2.61-1.43.15-.27.32-.68.34-1.21h-2.53v-.89Z"/>
    <path class="cls-3" d="M78.1,114.78h.92v5.3h-.92v-.74c-.31.4-.88.89-1.81.89-1.34,0-2.58-.95-2.58-2.81s1.23-2.77,2.58-2.77c1.02,0,1.57.56,1.81.88v-.75ZM74.65,117.43c0,1.14.64,1.99,1.74,1.99s1.76-.93,1.76-1.98c0-1.37-.95-1.97-1.76-1.97-.91,0-1.74.66-1.74,1.96Z"/>
    <path class="cls-3" d="M80.76,114.78h.92v.57c.09-.14.49-.7,1.2-.7.28,0,.59.1.82.22l-.43.83c-.2-.14-.4-.18-.54-.18-.37,0-.6.15-.74.33-.15.2-.31.56-.31,1.43v2.8h-.92v-5.3Z"/>
    <path class="cls-3" d="M88.3,110.77h.92v9.32h-.92v-.74c-.31.4-.88.89-1.81.89-1.34,0-2.58-.95-2.58-2.81s1.23-2.77,2.58-2.77c1.02,0,1.57.56,1.81.88v-4.77ZM84.85,117.43c0,1.14.64,1.99,1.74,1.99s1.76-.93,1.76-1.98c0-1.37-.95-1.97-1.76-1.97-.91,0-1.74.66-1.74,1.96Z"/>
    <path class="cls-3" d="M95.67,118.73c-.15.29-.38.61-.65.86-.49.43-1.09.65-1.76.65-1.28,0-2.62-.81-2.62-2.77,0-1.58.97-2.81,2.57-2.81,1.03,0,1.69.51,2.01.97.33.47.52,1.29.5,1.99h-4.13c.01,1.1.77,1.8,1.69,1.8.43,0,.78-.13,1.09-.38.24-.2.43-.47.55-.73l.77.42ZM94.76,116.86c-.15-.83-.78-1.38-1.56-1.38s-1.42.59-1.56,1.38h3.12Z"/>
    <path class="cls-3" d="M97.12,114.78h.92v.61c.17-.22.64-.74,1.52-.74.63,0,1.2.26,1.52.73.27.4.31.83.31,1.42v3.28h-.92v-3.26c0-.32-.03-.69-.24-.97-.18-.23-.46-.38-.87-.38-.32,0-.66.09-.93.41-.36.42-.38,1.05-.38,1.43v2.77h-.92v-5.3Z"/>
  </g>
  <g>
    <path class="cls-3" d="M59.94,148.23c-.11-.23-.31-.49-.5-.64-.17-.13-.47-.29-.96-.29-.84,0-1.43.52-1.43,1.32,0,.33.09.52.32.74.26.26.57.4.89.54l.82.36c.5.22.96.45,1.32.8.43.43.61.93.61,1.55,0,1.57-1.16,2.62-2.7,2.62-.56,0-1.27-.11-1.85-.69-.42-.41-.68-1-.79-1.51l.92-.26c.06.45.27.83.51,1.09.37.37.79.47,1.23.47,1.16,0,1.71-.83,1.71-1.69,0-.38-.11-.72-.42-1-.24-.23-.57-.38-1.02-.59l-.77-.36c-.33-.15-.75-.33-1.14-.7-.37-.36-.59-.75-.59-1.39,0-1.32,1.01-2.2,2.39-2.2.52,0,.95.1,1.37.38.34.23.64.58.83.95l-.75.5Z"/>
    <path class="cls-3" d="M63.44,152.86c0,.37,0,.8.26,1.14.14.18.42.41.93.41s.79-.23.93-.41c.26-.33.26-.77.26-1.14v-3.09h.92v3.19c0,.65-.06,1.14-.49,1.6-.47.5-1.1.66-1.62.66s-1.15-.17-1.62-.66c-.42-.46-.49-.95-.49-1.6v-3.19h.92v3.09Z"/>
    <path class="cls-3" d="M72.63,151.25c-.49-.61-1.19-.79-1.66-.79-.98,0-1.88.69-1.88,1.98s.92,1.97,1.87,1.97c.55,0,1.23-.24,1.71-.83v1.1c-.58.42-1.19.55-1.69.55-1.65,0-2.84-1.18-2.84-2.77s1.2-2.81,2.84-2.81c.84,0,1.39.33,1.65.51v1.1Z"/>
    <path class="cls-3" d="M78.23,151.25c-.49-.61-1.19-.79-1.66-.79-.98,0-1.88.69-1.88,1.98s.92,1.97,1.87,1.97c.55,0,1.23-.24,1.71-.83v1.1c-.58.42-1.19.55-1.69.55-1.65,0-2.84-1.18-2.84-2.77s1.2-2.81,2.84-2.81c.84,0,1.39.33,1.65.51v1.1Z"/>
    <path class="cls-3" d="M80.6,152.86c0,.37,0,.8.26,1.14.14.18.42.41.93.41s.79-.23.93-.41c.26-.33.26-.77.26-1.14v-3.09h.92v3.19c0,.65-.06,1.14-.49,1.6-.47.5-1.1.66-1.62.66s-1.15-.17-1.62-.66c-.42-.46-.49-.95-.49-1.6v-3.19h.92v3.09Z"/>
    <path class="cls-3" d="M86.56,145.75v9.32h-.92v-9.32h.92Z"/>
    <path class="cls-3" d="M93,153.72c-.15.29-.38.61-.65.86-.49.43-1.09.65-1.76.65-1.28,0-2.62-.81-2.62-2.77,0-1.58.97-2.81,2.57-2.81,1.03,0,1.69.51,2.01.97.33.47.52,1.29.5,1.99h-4.13c.01,1.1.77,1.8,1.69,1.8.43,0,.78-.13,1.09-.38.24-.2.43-.47.55-.73l.77.42ZM92.1,151.84c-.15-.83-.78-1.38-1.56-1.38s-1.42.59-1.56,1.38h3.12Z"/>
    <path class="cls-3" d="M94.45,149.77h.92v.61c.17-.22.64-.74,1.52-.74.63,0,1.2.26,1.52.73.27.4.31.83.31,1.42v3.28h-.92v-3.26c0-.32-.03-.69-.24-.97-.18-.23-.46-.38-.87-.38-.32,0-.66.09-.93.41-.36.42-.38,1.05-.38,1.43v2.77h-.92v-5.3Z"/>
    <path class="cls-3" d="M101.41,150.61v4.46h-.92v-4.46h-.56v-.84h.56v-1.92h.92v1.92h.92v.84h-.92Z"/>
  </g>
  <g>
    <path class="cls-3" d="M44.08,182.02h3.55v.2c0,.95-.28,1.97-.82,2.7-.26.35-1.21,1.53-3.17,1.53-2.53,0-4.42-1.93-4.42-4.41s1.9-4.41,4.45-4.41c.82,0,1.78.2,2.61.84.38.29.74.68.98,1.01l-.7.64c-.24-.35-.52-.65-.8-.88-.41-.33-1.05-.72-2.07-.72-2.06,0-3.49,1.55-3.49,3.53,0,2.33,1.85,3.5,3.46,3.5,1.14,0,2.12-.57,2.61-1.43.15-.27.32-.68.34-1.21h-2.53v-.89Z"/>
    <path class="cls-3" d="M49.15,181h.92v.58c.09-.14.49-.7,1.2-.7.28,0,.59.1.82.22l-.43.83c-.2-.14-.4-.18-.54-.18-.37,0-.6.15-.74.33-.15.2-.31.56-.31,1.43v2.8h-.92v-5.3Z"/>
    <path class="cls-3" d="M57.33,184.95c-.15.29-.38.61-.65.86-.49.43-1.09.65-1.76.65-1.28,0-2.62-.81-2.62-2.77,0-1.58.97-2.81,2.57-2.81,1.03,0,1.69.51,2.01.97.33.47.52,1.29.5,1.99h-4.13c.01,1.1.77,1.8,1.69,1.8.43,0,.78-.13,1.09-.38.24-.2.43-.47.55-.73l.77.42ZM56.42,183.07c-.15-.83-.78-1.38-1.56-1.38s-1.42.59-1.56,1.38h3.12Z"/>
    <path class="cls-3" d="M63.48,184.95c-.15.29-.38.61-.65.86-.49.43-1.09.65-1.76.65-1.28,0-2.62-.81-2.62-2.77,0-1.58.97-2.81,2.57-2.81,1.03,0,1.69.51,2.01.97.33.47.52,1.29.5,1.99h-4.13c.01,1.1.77,1.8,1.69,1.8.43,0,.78-.13,1.09-.38.24-.2.43-.47.55-.73l.77.42ZM62.57,183.07c-.15-.83-.78-1.38-1.56-1.38s-1.42.59-1.56,1.38h3.12Z"/>
    <path class="cls-3" d="M64.93,181h.92v.61c.17-.22.64-.74,1.52-.74.63,0,1.2.26,1.52.73.27.4.31.83.31,1.42v3.29h-.92v-3.26c0-.32-.03-.69-.24-.97-.18-.23-.46-.38-.87-.38-.32,0-.66.09-.93.41-.36.42-.38,1.05-.38,1.43v2.77h-.92v-5.3Z"/>
    <path class="cls-3" d="M70.94,176.99h.92v4.63c.17-.22.64-.74,1.52-.74.63,0,1.2.26,1.52.73.27.4.31.83.31,1.42v3.29h-.92v-3.26c0-.32-.03-.69-.24-.97-.18-.23-.46-.38-.87-.38-.32,0-.66.09-.93.41-.36.42-.38,1.05-.38,1.43v2.77h-.92v-9.32Z"/>
    <path class="cls-3" d="M76.42,183.67c0-1.61,1.19-2.8,2.81-2.8s2.81,1.19,2.81,2.8-1.2,2.79-2.81,2.79-2.81-1.18-2.81-2.79ZM77.37,183.67c0,1.3.92,1.97,1.87,1.97s1.87-.68,1.87-1.97-.89-1.98-1.87-1.98-1.87.69-1.87,1.98Z"/>
    <path class="cls-3" d="M84.38,184.09c0,.37,0,.81.26,1.14.14.18.42.41.93.41s.79-.23.93-.41c.26-.33.26-.77.26-1.14v-3.09h.92v3.19c0,.65-.06,1.14-.49,1.6-.47.5-1.1.66-1.62.66s-1.15-.17-1.62-.66c-.42-.46-.49-.95-.49-1.6v-3.19h.92v3.09Z"/>
    <path class="cls-3" d="M91.6,182.23c-.13-.31-.4-.54-.74-.54s-.64.19-.64.6c0,.38.26.5.86.75.77.32,1.12.56,1.33.82.23.28.28.56.28.86,0,1.11-.8,1.74-1.83,1.74-.22,0-1.41-.02-1.85-1.35l.79-.33c.1.28.41.87,1.07.87.6,0,.87-.45.87-.84,0-.5-.36-.66-.86-.88-.64-.28-1.05-.49-1.29-.78-.2-.26-.24-.51-.24-.78,0-.93.65-1.48,1.55-1.48.28,0,1.03.05,1.46.96l-.75.4Z"/>
    <path class="cls-3" d="M98.62,184.95c-.15.29-.38.61-.65.86-.49.43-1.09.65-1.76.65-1.28,0-2.62-.81-2.62-2.77,0-1.58.97-2.81,2.57-2.81,1.03,0,1.69.51,2.01.97.33.47.52,1.29.5,1.99h-4.13c.01,1.1.77,1.8,1.69,1.8.43,0,.78-.13,1.09-.38.24-.2.43-.47.55-.73l.77.42ZM97.71,183.07c-.15-.83-.78-1.38-1.56-1.38s-1.42.59-1.56,1.38h3.12Z"/>
  </g>
  <g>
    <path class="cls-3" d="M10.97,210.89c-.27-.27-.68-.59-1.11-.79-.45-.2-.97-.33-1.47-.33-1.97,0-3.43,1.58-3.43,3.55,0,2.31,1.88,3.48,3.44,3.48.58,0,1.14-.17,1.58-.4.49-.24.83-.56.98-.72v1.18c-.95.68-1.93.83-2.57.83-2.53,0-4.41-1.92-4.41-4.38s1.9-4.44,4.46-4.44c.51,0,1.5.06,2.52.84v1.18Z"/>
    <path class="cls-3" d="M12.15,214.91c0-1.61,1.19-2.8,2.81-2.8s2.81,1.19,2.81,2.8-1.2,2.79-2.81,2.79-2.81-1.18-2.81-2.79ZM13.09,214.91c0,1.3.92,1.97,1.87,1.97s1.87-.68,1.87-1.97-.89-1.98-1.87-1.98-1.87.69-1.87,1.98Z"/>
    <path class="cls-3" d="M19.18,212.24h.92v.56c.29-.43.75-.69,1.32-.69.96,0,1.34.68,1.44.86.51-.81,1.24-.86,1.6-.86,1.57,0,1.72,1.32,1.72,2.07v3.36h-.92v-3.22c0-.6-.08-1.39-.95-1.39-1.06,0-1.18,1.02-1.18,1.66v2.95h-.92v-3.14c0-.37.01-1.47-.96-1.47-1.05,0-1.16,1.09-1.16,1.73v2.89h-.92v-5.3Z"/>
    <path class="cls-3" d="M27.94,212.24h.92v.56c.29-.43.75-.69,1.32-.69.96,0,1.34.68,1.44.86.51-.81,1.24-.86,1.6-.86,1.57,0,1.72,1.32,1.72,2.07v3.36h-.92v-3.22c0-.6-.08-1.39-.95-1.39-1.06,0-1.18,1.02-1.18,1.66v2.95h-.92v-3.14c0-.37.01-1.47-.96-1.47-1.05,0-1.16,1.09-1.16,1.73v2.89h-.92v-5.3Z"/>
    <path class="cls-3" d="M37.62,215.33c0,.37,0,.81.26,1.14.14.18.42.41.93.41s.79-.23.93-.41c.26-.33.26-.77.26-1.14v-3.09h.92v3.19c0,.65-.06,1.14-.49,1.6-.47.5-1.1.66-1.62.66s-1.15-.17-1.62-.66c-.42-.46-.49-.95-.49-1.6v-3.19h.92v3.09Z"/>
    <path class="cls-3" d="M42.65,212.24h.92v.61c.17-.22.64-.74,1.52-.74.63,0,1.2.26,1.52.73.27.4.31.83.31,1.42v3.29h-.92v-3.26c0-.32-.03-.69-.24-.97-.18-.23-.46-.38-.87-.38-.32,0-.66.09-.93.41-.36.42-.38,1.05-.38,1.43v2.77h-.92v-5.3Z"/>
    <path class="cls-3" d="M49.12,209.58c.36,0,.65.29.65.65s-.29.65-.65.65-.65-.29-.65-.65.29-.65.65-.65ZM49.58,212.24v5.3h-.92v-5.3h.92Z"/>
    <path class="cls-3" d="M52.27,213.08v4.46h-.92v-4.46h-.56v-.84h.56v-1.92h.92v1.92h.92v.84h-.92Z"/>
    <path class="cls-3" d="M56.12,217.04l-2.44-4.81h1.05l1.88,3.8,1.73-3.8h1.02l-3.9,8.24h-1.02l1.69-3.44Z"/>
    <path class="cls-3" d="M67.93,213.26h3.55v.2c0,.95-.28,1.97-.82,2.7-.26.35-1.21,1.53-3.17,1.53-2.53,0-4.42-1.93-4.42-4.41s1.9-4.41,4.45-4.41c.82,0,1.78.2,2.61.84.38.29.74.68.98,1.01l-.7.64c-.24-.35-.52-.65-.8-.88-.41-.33-1.05-.72-2.07-.72-2.06,0-3.49,1.55-3.49,3.53,0,2.33,1.85,3.5,3.46,3.5,1.14,0,2.12-.57,2.61-1.43.15-.27.32-.68.34-1.21h-2.53v-.89Z"/>
    <path class="cls-3" d="M77.06,212.24h.92v5.3h-.92v-.74c-.31.4-.88.89-1.81.89-1.34,0-2.58-.95-2.58-2.81s1.23-2.77,2.58-2.77c1.02,0,1.57.56,1.81.88v-.75ZM73.61,214.88c0,1.14.64,1.99,1.74,1.99s1.76-.93,1.76-1.98c0-1.37-.95-1.97-1.76-1.97-.91,0-1.74.66-1.74,1.96Z"/>
    <path class="cls-3" d="M79.72,212.24h.92v.58c.09-.14.49-.7,1.2-.7.28,0,.59.1.82.22l-.43.83c-.2-.14-.4-.18-.54-.18-.37,0-.6.15-.74.33-.15.2-.31.56-.31,1.43v2.8h-.92v-5.3Z"/>
    <path class="cls-3" d="M87.27,208.22h.92v9.32h-.92v-.74c-.31.4-.88.89-1.81.89-1.34,0-2.58-.95-2.58-2.81s1.23-2.77,2.58-2.77c1.02,0,1.57.56,1.81.88v-4.77ZM83.81,214.88c0,1.14.64,1.99,1.74,1.99s1.76-.93,1.76-1.98c0-1.37-.95-1.97-1.76-1.97-.91,0-1.74.66-1.74,1.96Z"/>
    <path class="cls-3" d="M94.63,216.18c-.15.29-.38.61-.65.86-.49.43-1.09.65-1.76.65-1.28,0-2.62-.81-2.62-2.77,0-1.58.97-2.81,2.57-2.81,1.03,0,1.69.51,2.01.97.33.47.52,1.29.5,1.99h-4.13c.01,1.1.77,1.8,1.69,1.8.43,0,.78-.13,1.09-.38.24-.2.43-.47.55-.73l.77.42ZM93.72,214.31c-.15-.83-.78-1.38-1.56-1.38s-1.42.59-1.56,1.38h3.12Z"/>
    <path class="cls-3" d="M96.08,212.24h.92v.61c.17-.22.64-.74,1.52-.74.63,0,1.2.26,1.52.73.27.4.31.83.31,1.42v3.29h-.92v-3.26c0-.32-.03-.69-.24-.97-.18-.23-.46-.38-.87-.38-.32,0-.66.09-.93.41-.36.42-.38,1.05-.38,1.43v2.77h-.92v-5.3Z"/>
  </g>
  <g>
    <path class="cls-3" d="M20.84,242.5l2.4,6.5,2.4-6.5h1.05l-3.45,9.03-3.45-9.03h1.05Z"/>
    <path class="cls-3" d="M31.97,249.67c-.15.29-.38.61-.65.86-.49.43-1.09.65-1.76.65-1.28,0-2.62-.81-2.62-2.77,0-1.58.97-2.81,2.57-2.81,1.03,0,1.69.51,2.01.97.33.47.52,1.29.5,1.99h-4.13c.01,1.1.77,1.8,1.69,1.8.43,0,.78-.13,1.09-.38.24-.2.43-.47.55-.73l.77.42ZM31.07,247.79c-.15-.83-.78-1.38-1.56-1.38s-1.42.59-1.56,1.38h3.12Z"/>
    <path class="cls-3" d="M33.42,245.72h.92v.57c.09-.14.49-.7,1.2-.7.28,0,.59.1.82.22l-.43.83c-.2-.14-.4-.18-.54-.18-.37,0-.6.15-.74.33-.15.2-.31.56-.31,1.43v2.8h-.92v-5.3Z"/>
    <path class="cls-3" d="M38.41,246.56v4.46h-.92v-4.46h-.56v-.84h.56v-1.92h.92v1.92h.92v.84h-.92Z"/>
    <path class="cls-3" d="M40.66,243.06c.36,0,.65.29.65.65s-.29.65-.65.65-.65-.29-.65-.65.29-.65.65-.65ZM41.12,245.72v5.3h-.92v-5.3h.92Z"/>
    <path class="cls-3" d="M47.01,247.2c-.49-.61-1.19-.79-1.66-.79-.98,0-1.88.69-1.88,1.98s.92,1.97,1.87,1.97c.55,0,1.23-.24,1.71-.83v1.1c-.58.42-1.19.55-1.69.55-1.65,0-2.84-1.18-2.84-2.77s1.2-2.81,2.84-2.81c.84,0,1.39.33,1.65.51v1.1Z"/>
    <path class="cls-3" d="M52.52,245.72h.92v5.3h-.92v-.74c-.31.4-.88.89-1.81.89-1.34,0-2.58-.95-2.58-2.81s1.23-2.77,2.58-2.77c1.02,0,1.57.56,1.81.88v-.75ZM49.07,248.36c0,1.14.64,1.99,1.74,1.99s1.76-.93,1.76-1.98c0-1.37-.95-1.97-1.76-1.97-.91,0-1.74.66-1.74,1.96Z"/>
    <path class="cls-3" d="M56.1,241.7v9.32h-.92v-9.32h.92Z"/>
    <path class="cls-3" d="M65.45,246.74h3.55v.2c0,.94-.28,1.97-.82,2.7-.26.34-1.21,1.53-3.17,1.53-2.53,0-4.42-1.93-4.42-4.41s1.9-4.41,4.45-4.41c.82,0,1.78.2,2.61.84.38.29.74.68.98,1.01l-.7.64c-.24-.34-.52-.65-.8-.88-.41-.33-1.05-.72-2.07-.72-2.06,0-3.49,1.55-3.49,3.53,0,2.33,1.85,3.5,3.46,3.5,1.14,0,2.12-.58,2.61-1.43.15-.27.32-.68.34-1.21h-2.53v-.89Z"/>
    <path class="cls-3" d="M74.58,245.72h.92v5.3h-.92v-.74c-.31.4-.88.89-1.81.89-1.34,0-2.58-.95-2.58-2.81s1.23-2.77,2.58-2.77c1.02,0,1.57.56,1.81.88v-.75ZM71.13,248.36c0,1.14.64,1.99,1.74,1.99s1.76-.93,1.76-1.98c0-1.37-.95-1.97-1.76-1.97-.91,0-1.74.66-1.74,1.96Z"/>
    <path class="cls-3" d="M77.24,245.72h.92v.57c.09-.14.49-.7,1.2-.7.28,0,.59.1.82.22l-.43.83c-.2-.14-.4-.18-.54-.18-.37,0-.6.15-.74.33-.15.2-.31.56-.31,1.43v2.8h-.92v-5.3Z"/>
    <path class="cls-3" d="M84.78,241.7h.92v9.32h-.92v-.74c-.31.4-.88.89-1.81.89-1.34,0-2.58-.95-2.58-2.81s1.23-2.77,2.58-2.77c1.02,0,1.57.56,1.81.88v-4.77ZM81.33,248.36c0,1.14.64,1.99,1.74,1.99s1.76-.93,1.76-1.98c0-1.37-.95-1.97-1.76-1.97-.91,0-1.74.66-1.74,1.96Z"/>
    <path class="cls-3" d="M92.15,249.67c-.15.29-.38.61-.65.86-.49.43-1.09.65-1.76.65-1.28,0-2.62-.81-2.62-2.77,0-1.58.97-2.81,2.57-2.81,1.03,0,1.69.51,2.01.97.33.47.52,1.29.5,1.99h-4.13c.01,1.1.77,1.8,1.69,1.8.43,0,.78-.13,1.09-.38.24-.2.43-.47.55-.73l.77.42ZM91.24,247.79c-.15-.83-.78-1.38-1.56-1.38s-1.42.59-1.56,1.38h3.12Z"/>
    <path class="cls-3" d="M93.6,245.72h.92v.61c.17-.22.64-.74,1.52-.74.63,0,1.2.25,1.52.73.27.4.31.83.31,1.42v3.28h-.92v-3.26c0-.32-.03-.69-.24-.97-.18-.23-.46-.38-.87-.38-.32,0-.66.09-.93.41-.36.42-.38,1.05-.38,1.43v2.77h-.92v-5.3Z"/>
  </g>
  <g>
    <path class="cls-3" d="M.95,279.43h4.37v-3.46h.95v8.52h-.95v-4.17H.95v4.17h-.95v-8.52h.95v3.46Z"/>
    <path class="cls-3" d="M9.91,284l-2.44-4.81h1.05l1.88,3.8,1.73-3.8h1.02l-3.9,8.24h-1.02l1.69-3.44Z"/>
    <path class="cls-3" d="M18.18,275.18h.92v9.32h-.92v-.74c-.31.4-.88.89-1.81.89-1.34,0-2.58-.95-2.58-2.81s1.23-2.77,2.58-2.77c1.02,0,1.57.56,1.81.88v-4.77ZM14.73,281.84c0,1.14.64,1.99,1.74,1.99s1.76-.93,1.76-1.98c0-1.37-.95-1.97-1.76-1.97-.91,0-1.74.66-1.74,1.96Z"/>
    <path class="cls-3" d="M20.84,279.19h.92v.58c.09-.14.49-.7,1.2-.7.28,0,.59.1.82.22l-.43.83c-.2-.14-.4-.18-.54-.18-.37,0-.6.15-.74.33-.15.2-.31.56-.31,1.43v2.8h-.92v-5.3Z"/>
    <path class="cls-3" d="M23.99,281.86c0-1.61,1.19-2.8,2.81-2.8s2.81,1.19,2.81,2.8-1.2,2.79-2.81,2.79-2.81-1.18-2.81-2.79ZM24.93,281.86c0,1.3.92,1.97,1.87,1.97s1.87-.68,1.87-1.97-.89-1.98-1.87-1.98-1.87.69-1.87,1.98Z"/>
    <path class="cls-3" d="M31.94,287.43h-.92v-8.24h.92v.74c.63-.78,1.43-.87,1.81-.87,1.66,0,2.58,1.38,2.58,2.81s-.93,2.77-2.54,2.77c-.86,0-1.46-.38-1.85-.89v3.68ZM35.39,281.87c0-1.3-.88-1.99-1.74-1.99s-1.76.7-1.76,1.98c0,1.09.69,1.97,1.78,1.97s1.73-.89,1.73-1.96Z"/>
    <path class="cls-3" d="M37.42,281.86c0-1.61,1.19-2.8,2.81-2.8s2.81,1.19,2.81,2.8-1.2,2.79-2.81,2.79-2.81-1.18-2.81-2.79ZM38.36,281.86c0,1.3.92,1.97,1.87,1.97s1.87-.68,1.87-1.97-.89-1.98-1.87-1.98-1.87.69-1.87,1.98Z"/>
    <path class="cls-3" d="M44.45,279.19h.92v.61c.17-.22.64-.74,1.52-.74.63,0,1.2.26,1.52.73.27.4.31.83.31,1.42v3.29h-.92v-3.26c0-.32-.03-.69-.24-.97-.18-.23-.46-.38-.87-.38-.32,0-.66.09-.93.41-.36.42-.38,1.05-.38,1.43v2.77h-.92v-5.3Z"/>
    <path class="cls-3" d="M50.92,276.53c.36,0,.65.29.65.65s-.29.65-.65.65-.65-.29-.65-.65.29-.65.65-.65ZM51.38,279.19v5.3h-.92v-5.3h.92Z"/>
    <path class="cls-3" d="M57.27,280.67c-.49-.61-1.19-.79-1.66-.79-.98,0-1.88.69-1.88,1.98s.92,1.97,1.87,1.97c.55,0,1.23-.24,1.71-.83v1.1c-.58.42-1.19.55-1.69.55-1.65,0-2.84-1.18-2.84-2.77s1.2-2.81,2.84-2.81c.84,0,1.39.33,1.65.51v1.1Z"/>
    <path class="cls-3" d="M66.32,280.21h3.55v.2c0,.95-.28,1.97-.82,2.7-.26.35-1.21,1.53-3.17,1.53-2.53,0-4.42-1.93-4.42-4.41s1.9-4.41,4.45-4.41c.82,0,1.78.2,2.61.84.38.29.74.68.98,1.01l-.7.64c-.24-.35-.52-.65-.8-.88-.41-.33-1.05-.71-2.07-.71-2.06,0-3.49,1.55-3.49,3.53,0,2.33,1.85,3.5,3.46,3.5,1.14,0,2.12-.57,2.61-1.43.15-.27.32-.68.34-1.21h-2.53v-.89Z"/>
    <path class="cls-3" d="M75.45,279.19h.92v5.3h-.92v-.74c-.31.4-.88.89-1.81.89-1.34,0-2.58-.95-2.58-2.81s1.23-2.77,2.58-2.77c1.02,0,1.57.56,1.81.88v-.75ZM72,281.84c0,1.14.64,1.99,1.74,1.99s1.76-.93,1.76-1.98c0-1.37-.95-1.97-1.76-1.97-.91,0-1.74.66-1.74,1.96Z"/>
    <path class="cls-3" d="M78.11,279.19h.92v.58c.09-.14.49-.7,1.2-.7.28,0,.59.1.82.22l-.43.83c-.2-.14-.4-.18-.54-.18-.37,0-.6.15-.74.33-.15.2-.31.56-.31,1.43v2.8h-.92v-5.3Z"/>
    <path class="cls-3" d="M85.66,275.18h.92v9.32h-.92v-.74c-.31.4-.88.89-1.81.89-1.34,0-2.58-.95-2.58-2.81s1.23-2.77,2.58-2.77c1.02,0,1.57.56,1.81.88v-4.77ZM82.21,281.84c0,1.14.64,1.99,1.74,1.99s1.76-.93,1.76-1.98c0-1.37-.95-1.97-1.76-1.97-.91,0-1.74.66-1.74,1.96Z"/>
    <path class="cls-3" d="M93.02,283.14c-.15.29-.38.61-.65.86-.49.43-1.09.65-1.76.65-1.28,0-2.62-.81-2.62-2.77,0-1.58.97-2.81,2.57-2.81,1.03,0,1.69.51,2.01.97.33.47.52,1.29.5,1.99h-4.13c.01,1.1.77,1.8,1.69,1.8.43,0,.78-.13,1.09-.38.24-.2.43-.47.55-.73l.77.42ZM92.11,281.26c-.15-.83-.78-1.38-1.56-1.38s-1.42.59-1.56,1.38h3.12Z"/>
    <path class="cls-3" d="M94.47,279.19h.92v.61c.17-.22.64-.74,1.52-.74.63,0,1.2.26,1.52.73.27.4.31.83.31,1.42v3.29h-.92v-3.26c0-.32-.03-.69-.24-.97-.18-.23-.46-.38-.87-.38-.32,0-.66.09-.93.41-.36.42-.38,1.05-.38,1.43v2.77h-.92v-5.3Z"/>
  </g>
  <g>
    <path class="cls-3" d="M51.5,309.65v8.52h-.95v-8.52h.95Z"/>
    <path class="cls-3" d="M53.47,312.87h.92v.61c.17-.22.64-.74,1.52-.74.63,0,1.2.26,1.52.73.27.4.31.83.31,1.42v3.29h-.92v-3.26c0-.32-.03-.69-.24-.97-.18-.23-.46-.38-.87-.38-.32,0-.66.09-.93.41-.36.42-.38,1.05-.38,1.43v2.77h-.92v-5.3Z"/>
    <path class="cls-3" d="M67.09,313.89h3.55v.2c0,.95-.28,1.97-.82,2.7-.26.35-1.21,1.53-3.17,1.53-2.53,0-4.42-1.93-4.42-4.41s1.9-4.41,4.45-4.41c.82,0,1.78.2,2.61.84.38.29.74.68.98,1.01l-.7.64c-.24-.35-.52-.65-.8-.88-.41-.33-1.05-.71-2.07-.71-2.06,0-3.49,1.55-3.49,3.53,0,2.33,1.85,3.5,3.46,3.5,1.14,0,2.12-.57,2.61-1.43.15-.27.32-.68.34-1.21h-2.53v-.89Z"/>
    <path class="cls-3" d="M72.15,312.87h.92v.58c.09-.14.49-.7,1.2-.7.28,0,.59.1.82.22l-.43.83c-.2-.14-.4-.18-.54-.18-.37,0-.6.15-.74.33-.15.2-.31.56-.31,1.43v2.8h-.92v-5.3Z"/>
    <path class="cls-3" d="M75.3,315.54c0-1.61,1.19-2.8,2.81-2.8s2.81,1.19,2.81,2.8-1.2,2.79-2.81,2.79-2.81-1.18-2.81-2.79ZM76.24,315.54c0,1.3.92,1.97,1.87,1.97s1.87-.68,1.87-1.97-.89-1.98-1.87-1.98-1.87.69-1.87,1.98Z"/>
    <path class="cls-3" d="M83.25,315.96c0,.37,0,.81.26,1.14.14.18.42.41.93.41s.79-.23.93-.41c.26-.33.26-.77.26-1.14v-3.09h.92v3.19c0,.65-.06,1.14-.49,1.6-.47.5-1.1.66-1.62.66s-1.15-.17-1.62-.66c-.42-.46-.49-.94-.49-1.6v-3.19h.92v3.09Z"/>
    <path class="cls-3" d="M88.29,312.87h.92v.61c.17-.22.64-.74,1.52-.74.63,0,1.2.26,1.52.73.27.4.31.83.31,1.42v3.29h-.92v-3.26c0-.32-.03-.69-.24-.97-.18-.23-.46-.38-.87-.38-.32,0-.66.09-.93.41-.36.42-.38,1.05-.38,1.43v2.77h-.92v-5.3Z"/>
    <path class="cls-3" d="M98.36,308.86h.92v9.32h-.92v-.74c-.31.4-.88.89-1.81.89-1.34,0-2.58-.95-2.58-2.81s1.23-2.77,2.58-2.77c1.02,0,1.57.56,1.81.88v-4.77ZM94.91,315.52c0,1.14.64,1.99,1.74,1.99s1.76-.93,1.76-1.98c0-1.37-.95-1.97-1.76-1.97-.91,0-1.74.66-1.74,1.96Z"/>
  </g>
</svg>