<?xml version="1.0" encoding="UTF-8"?>
<svg id="Layer_1" data-name="Layer 1" xmlns="http://www.w3.org/2000/svg" viewBox="0 0 299.68 299.68">
  <defs>
    <style>
      .cls-1 {
        fill: #415645;
      }

      .cls-1, .cls-2, .cls-3, .cls-4, .cls-5 {
        stroke-width: 0px;
      }

      .cls-2 {
        fill: #e3954a;
      }

      .cls-3 {
        fill: #9bc48d;
      }

      .cls-4 {
        fill: #b8614b;
      }

      .cls-5 {
        fill: #9ecbdc;
      }
    </style>
  </defs>
  <path class="cls-3" d="M149.83,1.07c20.94,0,41.65,4.42,60.76,12.97l-60.76,135.79V1.07Z"/>
  <path class="cls-5" d="M129.04,2.53c6.89-.97,13.84-1.46,20.8-1.46v148.77L129.04,2.53Z"/>
  <path class="cls-2" d="M5.78,187c-10.58-41.01-3.18-84.59,20.36-119.81C49.67,31.97,87.1,8.45,129.04,2.53l20.8,147.31L5.78,187Z"/>
  <path class="cls-4" d="M137.33,298.08c-63-5.31-115.76-49.86-131.55-111.08l144.05-37.16-12.5,148.24Z"/>
  <path class="cls-1" d="M210.59,14.05c66.22,29.63,101.41,102.7,83.29,172.95-18.12,70.25-84.27,117.18-156.56,111.08l12.5-148.24L210.59,14.05Z"/>
</svg>