<?xml version="1.0" encoding="UTF-8"?>
<svg id="Layer_1" data-name="Layer 1" xmlns="http://www.w3.org/2000/svg" viewBox="0 0 299.32 299.29">
  <defs>
    <style>
      .cls-1 {
        fill: #415645;
      }

      .cls-1, .cls-2, .cls-3, .cls-4, .cls-5 {
        stroke-width: 0px;
      }

      .cls-2 {
        fill: #e3954a;
      }

      .cls-3 {
        fill: #9bc48d;
      }

      .cls-4 {
        fill: #b8614b;
      }

      .cls-5 {
        fill: #9ecbdc;
      }
    </style>
  </defs>
  <path class="cls-3" d="M149.67,0c62.17,0,117.87,38.45,139.92,96.58,22.05,58.13,5.85,123.85-40.69,165.08l-99.23-112.01V0Z"/>
  <path class="cls-5" d="M135.23.7c4.8-.47,9.62-.7,14.44-.7v149.64L135.23.7Z"/>
  <path class="cls-2" d="M93.24,11.05c13.42-5.46,27.56-8.95,41.99-10.35l14.44,148.95L93.24,11.05Z"/>
  <path class="cls-4" d="M5.28,188.96C-14.6,115.94,23.15,39.58,93.24,11.05l56.43,138.6L5.28,188.96Z"/>
  <path class="cls-1" d="M248.9,261.65c-38.73,34.31-92.44,46.18-142.02,31.39-49.58-14.8-88-54.16-101.6-104.08l144.39-39.31,99.23,112.01Z"/>
</svg>